<?xml version="1.0" encoding="utf-8"?>
<!-- Generator: Adobe Illustrator 21.1.0, SVG Export Plug-In . SVG Version: 6.00 Build 0)  -->
<svg version="1.1" id="Слой_1" xmlns="http://www.w3.org/2000/svg" xmlns:xlink="http://www.w3.org/1999/xlink" x="0px" y="0px"
	 viewBox="0 0 200 200" style="enable-background:new 0 0 200 200;" xml:space="preserve">
<style type="text/css">
	.st0{display:none;}
	.st1{display:inline;fill:#323A5F;}
	.st2{display:inline;fill:#EBEEF7;}
	.st3{display:none;fill:none;stroke:#EBEEF7;stroke-width:4;stroke-miterlimit:10;}
	.st4{fill:none;stroke:#EBEEF7;stroke-width:4;stroke-miterlimit:10;}
	.st5{fill:none;stroke:#EBEEF7;stroke-width:4;stroke-linejoin:bevel;stroke-miterlimit:10;}
	.st6{fill:none;stroke:#EBEEF7;stroke-width:4;stroke-linecap:round;stroke-linejoin:round;stroke-miterlimit:10;}
	.st7{display:none;fill:none;stroke:#EBEEF7;stroke-width:4;stroke-linecap:round;stroke-linejoin:round;stroke-miterlimit:10;}
</style>
<g class="st0">
	<rect class="st1" width="200" height="200"/>
</g>
<g id="location-1" class="st0">
	<path class="st2" d="M100.3,22c29.7,0,53.9,24.2,53.9,53.9c0,12.3-9.8,34.2-28.3,63.3c-10.2,16.1-20.6,30.3-25.6,37.1
		c-5-6.8-15.4-21-25.6-37.1c-18.5-29.1-28.3-51-28.3-63.3C46.3,46.2,70.5,22,100.3,22 M100.3,18c-32,0-57.9,25.9-57.9,57.9
		S100.3,183,100.3,183s57.9-75.1,57.9-107.1S132.2,18,100.3,18L100.3,18z"/>
</g>
<circle id="location-2" class="st3" cx="100" cy="78" r="28"/>
<rect id="e-mail_2_" x="13" y="47" class="st4" width="173" height="106"/>
<polygon id="e-mail" class="st5" points="99,111 90.9,105 13,153 186,153 107.2,105 "/>
<polygon id="e-mail_1_" class="st6" points="13,47 99,111 186,47 "/>
<path id="pfone" class="st7" d="M27.9,145.4c0-0.5,0-1,0-1.5c0-5.7,1.7-10.9,4.6-15.4l41-6.5c5,4,8.6,9.8,9.9,16.4
	c25-10.5,45-30.5,55.5-55.5c-6.6-1.3-12.3-4.9-16.4-9.9l6.5-41c4.4-2.9,9.7-4.6,15.4-4.6c0.5,0,1,0,1.5,0c14.8,0.8,26.5,13,26.5,28
	c0,64.3-52.1,116.4-116.4,116.4C40.9,171.9,28.7,160.1,27.9,145.4z"/>
</svg>
