<?xml version="1.0" encoding="utf-8"?>
<!-- Generator: Adobe Illustrator 21.1.0, SVG Export Plug-In . SVG Version: 6.00 Build 0)  -->
<svg version="1.1" id="Слой_1" xmlns="http://www.w3.org/2000/svg" xmlns:xlink="http://www.w3.org/1999/xlink" x="0px" y="0px"
	 viewBox="0 0 250 250" style="enable-background:new 0 0 250 250;" xml:space="preserve">
<style type="text/css">
	.st0{display:none;fill:none;stroke:#041B88;stroke-width:2;stroke-miterlimit:10;}
	.st1{fill:none;}
	.st2{enable-background:new    ;}
	.st3{fill:#041B88;}
	.st4{fill:#FFFFFF;stroke:#041B88;stroke-width:4;stroke-miterlimit:10;}
	.st5{fill:none;stroke:#041B88;stroke-width:4;stroke-miterlimit:10;}
	.st6{fill:none;stroke:#041B88;stroke-width:3;stroke-miterlimit:10;}
	.st7{fill:#FFFFFF;stroke:#041B88;stroke-width:1.5;stroke-miterlimit:10;}
</style>
<g id="Слой_1_1_">
	<line class="st0" x1="0" y1="0" x2="250" y2="250"/>
	<line class="st0" x1="0" y1="250" x2="250" y2="0"/>
	<rect y="15.9" class="st1" width="250" height="25"/>
	<g class="st2">
		<path class="st3" d="M42.3,25.9h3.3c1.3,0,2.4,0.1,3.3,0.4s1.8,0.7,2.4,1.2c0.6,0.5,1.1,1.1,1.5,1.8c0.3,0.7,0.5,1.5,0.5,2.3
			c0,1-0.2,1.8-0.6,2.6c-0.4,0.8-0.9,1.4-1.6,2c-0.7,0.5-1.5,1-2.5,1.2c-1,0.3-2.1,0.4-3.3,0.4h-5.8V17.5h12.3v2.3h-9.5V25.9z
			 M50.3,31.9c0-0.6-0.1-1.1-0.3-1.5c-0.2-0.4-0.5-0.8-0.9-1.2c-0.4-0.3-0.9-0.6-1.5-0.7c-0.6-0.2-1.4-0.3-2.2-0.3h-3.1v7.4h3.2
			c1.6,0,2.8-0.3,3.6-1C49.9,34,50.3,33,50.3,31.9z"/>
		<path class="st3" d="M70.5,23.8c0,0.8-0.2,1.7-0.5,2.5c-0.3,0.8-0.8,1.5-1.5,2.2c-0.7,0.6-1.5,1.2-2.5,1.6c-1,0.4-2.2,0.6-3.7,0.6
			h-2.5v7.3h-2.8V17.5h5.8c1,0,2,0.1,2.9,0.3c0.9,0.2,1.7,0.6,2.4,1.1s1.3,1.1,1.7,1.9C70.3,21.7,70.5,22.6,70.5,23.8z M67.6,23.9
			c0-1.3-0.4-2.3-1.3-3c-0.9-0.7-2.1-1-3.6-1h-2.8v8.4h2.6c1.6,0,2.9-0.4,3.8-1.1S67.6,25.3,67.6,23.9z"/>
		<path class="st3" d="M89,27.6c0,1.8-0.2,3.4-0.6,4.8c-0.4,1.3-1,2.4-1.8,3.3c-0.7,0.9-1.6,1.5-2.6,1.9s-2,0.6-3.1,0.6
			c-1.3,0-2.5-0.2-3.4-0.7c-1-0.5-1.8-1.2-2.4-2.1c-0.6-0.9-1.1-2-1.4-3.3c-0.3-1.3-0.5-2.7-0.5-4.4c0-1.8,0.2-3.4,0.6-4.7
			c0.4-1.3,1-2.4,1.7-3.3c0.7-0.9,1.6-1.5,2.6-1.9c1-0.4,2-0.6,3.1-0.6c1.3,0,2.5,0.2,3.4,0.7c1,0.5,1.8,1.2,2.4,2.1
			c0.6,0.9,1.1,2,1.4,3.3C88.8,24.5,89,26,89,27.6z M86.1,27.8c0-1.2-0.1-2.3-0.3-3.3c-0.2-1-0.5-1.9-0.9-2.6s-0.9-1.3-1.6-1.7
			c-0.6-0.4-1.4-0.6-2.3-0.6c-0.9,0-1.6,0.2-2.3,0.6c-0.6,0.4-1.1,1-1.6,1.7c-0.4,0.7-0.7,1.6-0.9,2.5c-0.2,1-0.3,2-0.3,3.1
			c0,1.2,0.1,2.3,0.3,3.3c0.2,1,0.5,1.8,0.9,2.6c0.4,0.7,0.9,1.3,1.6,1.7c0.6,0.4,1.4,0.6,2.3,0.6c0.9,0,1.6-0.2,2.3-0.6
			c0.6-0.4,1.2-1,1.6-1.7c0.4-0.7,0.7-1.6,0.9-2.5C86,29.9,86.1,28.9,86.1,27.8z"/>
		<path class="st3" d="M91.1,17.5h2.6v18.2h3.7V17.5h2.5v18.2h3.7V17.5h2.6v20.4h-15V17.5z"/>
		<path class="st3" d="M114.1,26.2c0-1.5,0.2-2.9,0.4-4c0.2-1.1,0.5-2.1,1-2.8c0.4-0.7,1-1.3,1.6-1.6c0.6-0.4,1.4-0.5,2.3-0.5
			c1.1,0,1.9,0.2,2.6,0.7s1.2,1.1,1.5,2c0.4,0.9,0.6,2,0.7,3.3c0.1,1.3,0.2,2.7,0.2,4.4c0,1.8-0.1,3.3-0.3,4.6s-0.5,2.4-0.9,3.3
			c-0.4,0.9-1,1.5-1.6,2s-1.5,0.7-2.5,0.7s-1.8-0.2-2.5-0.7c-0.6-0.4-1.2-1.1-1.5-1.9c-0.4-0.8-0.6-1.9-0.8-3.1
			c-0.2-1.2-0.2-2.6-0.2-4.1h-2.8v9.4h-2.6V17.5h2.6v8.7H114.1z M121.8,27.7c0-1.4,0-2.6-0.1-3.6c-0.1-1-0.2-1.9-0.4-2.6
			c-0.2-0.7-0.4-1.2-0.8-1.6c-0.3-0.4-0.8-0.5-1.3-0.5c-0.5,0-0.9,0.2-1.2,0.5c-0.3,0.4-0.6,0.9-0.8,1.6c-0.2,0.7-0.3,1.6-0.4,2.6
			c-0.1,1-0.1,2.2-0.1,3.6c0,1.3,0,2.5,0.1,3.6c0.1,1,0.2,1.9,0.4,2.6c0.2,0.7,0.4,1.2,0.8,1.6c0.3,0.4,0.8,0.5,1.3,0.5
			c0.5,0,0.9-0.2,1.3-0.6c0.3-0.4,0.6-0.9,0.8-1.6s0.3-1.6,0.4-2.6C121.7,30.2,121.8,29,121.8,27.7z"/>
		<path class="st3" d="M140.9,23.8c0,0.8-0.2,1.7-0.5,2.5c-0.3,0.8-0.8,1.5-1.5,2.2c-0.7,0.6-1.5,1.2-2.5,1.6
			c-1,0.4-2.2,0.6-3.7,0.6h-2.5v7.3h-2.8V17.5h5.8c1,0,2,0.1,2.9,0.3c0.9,0.2,1.7,0.6,2.4,1.1s1.3,1.1,1.7,1.9
			C140.7,21.7,140.9,22.6,140.9,23.8z M138,23.9c0-1.3-0.4-2.3-1.3-3c-0.9-0.7-2.1-1-3.6-1h-2.8v8.4h2.6c1.6,0,2.9-0.4,3.8-1.1
			S138,25.3,138,23.9z"/>
		<path class="st3" d="M159.3,27.6c0,1.8-0.2,3.4-0.6,4.8c-0.4,1.3-1,2.4-1.8,3.3c-0.7,0.9-1.6,1.5-2.6,1.9s-2,0.6-3.1,0.6
			c-1.3,0-2.5-0.2-3.4-0.7c-1-0.5-1.8-1.2-2.4-2.1c-0.6-0.9-1.1-2-1.4-3.3c-0.3-1.3-0.5-2.7-0.5-4.4c0-1.8,0.2-3.4,0.6-4.7
			c0.4-1.3,1-2.4,1.7-3.3c0.7-0.9,1.6-1.5,2.6-1.9c1-0.4,2-0.6,3.1-0.6c1.3,0,2.5,0.2,3.4,0.7c1,0.5,1.8,1.2,2.4,2.1
			c0.6,0.9,1.1,2,1.4,3.3C159.2,24.5,159.3,26,159.3,27.6z M156.4,27.8c0-1.2-0.1-2.3-0.3-3.3c-0.2-1-0.5-1.9-0.9-2.6
			s-0.9-1.3-1.6-1.7c-0.6-0.4-1.4-0.6-2.3-0.6c-0.9,0-1.6,0.2-2.3,0.6c-0.6,0.4-1.1,1-1.6,1.7c-0.4,0.7-0.7,1.6-0.9,2.5
			c-0.2,1-0.3,2-0.3,3.1c0,1.2,0.1,2.3,0.3,3.3c0.2,1,0.5,1.8,0.9,2.6c0.4,0.7,0.9,1.3,1.6,1.7c0.6,0.4,1.4,0.6,2.3,0.6
			c0.9,0,1.6-0.2,2.3-0.6c0.6-0.4,1.2-1,1.6-1.7c0.4-0.7,0.7-1.6,0.9-2.5C156.3,29.9,156.4,28.9,156.4,27.8z"/>
		<path class="st3" d="M176.1,31.8c0,1-0.2,1.8-0.6,2.6c-0.4,0.8-0.9,1.4-1.6,1.9c-0.7,0.5-1.6,0.9-2.5,1.2c-1,0.3-2.1,0.4-3.3,0.4
			h-5.3V17.5h5.8c4.6,0,6.8,1.7,6.8,5c0,1.1-0.3,2.1-0.8,2.8c-0.5,0.8-1.4,1.4-2.6,1.8c0.6,0.1,1.1,0.3,1.6,0.5
			c0.5,0.3,0.9,0.6,1.3,1c0.4,0.4,0.7,0.9,0.9,1.4C176,30.5,176.1,31.1,176.1,31.8z M172.4,22.9c0-0.4-0.1-0.8-0.2-1.2
			c-0.1-0.4-0.3-0.7-0.7-1s-0.7-0.5-1.3-0.6s-1.2-0.2-2-0.2h-2.9v6.4h2.8c0.6,0,1.2-0.1,1.7-0.2c0.5-0.1,1-0.3,1.3-0.6
			c0.4-0.3,0.7-0.6,0.9-1.1S172.4,23.4,172.4,22.9z M173.1,31.9c0-0.5-0.1-1-0.3-1.4c-0.2-0.4-0.5-0.8-1-1.1
			c-0.4-0.3-0.9-0.5-1.5-0.7c-0.6-0.2-1.3-0.2-2-0.2h-2.8v7h2.9c1.6,0,2.8-0.3,3.6-0.9S173.1,33.2,173.1,31.9z"/>
		<path class="st3" d="M194.1,37.9h-3.5l-7.6-10v10h-2.8V17.5h2.8V27l7.5-9.5h3.3l-8.1,9.7L194.1,37.9z"/>
		<path class="st3" d="M212.8,37.9h-3l-1.4-4.5h-8.5l-1.4,4.5h-2.9l6.8-20.4h3.8L212.8,37.9z M207.6,31l-3.5-10.9L200.7,31H207.6z"
			/>
	</g>
</g>
<g id="Слой_2">
	<path class="st4" d="M83.9,225H170c2.8,0,5-2.2,5-5V82.2c0-2.8-2.2-5-5-5H83.9c-2.8,0-5,2.2-5,5V220C78.9,222.8,81.2,225,83.9,225z
		"/>
	<path class="st4" d="M76.3,231.5h86.1c2.8,0,5-2.2,5-5V88.7c0-2.8-2.2-5-5-5H76.3c-2.8,0-5,2.2-5,5v137.8
		C71.3,229.3,73.5,231.5,76.3,231.5z"/>
	<line class="st5" x1="150.6" y1="157.6" x2="84.6" y2="157.6"/>
	<line class="st5" x1="150.6" y1="125.3" x2="84.6" y2="125.3"/>
	<line class="st5" x1="150.6" y1="190" x2="84.6" y2="190"/>
	<path class="st4" d="M76,231.5h86.1c2.8,0,5-2.2,5-5V88.7c0-2.8-2.2-5-5-5H76c-2.8,0-5,2.2-5,5v137.8C71,229.3,73.2,231.5,76,231.5
		z"/>
	<line class="st6" x1="72.5" y1="84.5" x2="81.6" y2="77.1"/>
	<line class="st5" x1="164.7" y1="86.1" x2="173.2" y2="78.3"/>
	<line class="st6" x1="165.6" y1="231.1" x2="174.7" y2="223"/>
	<line class="st5" x1="150.1" y1="145.4" x2="88.6" y2="145.4"/>
	<line class="st5" x1="150.1" y1="115.2" x2="88.6" y2="115.2"/>
	<line class="st5" x1="150.1" y1="175.5" x2="88.6" y2="175.5"/>
	<ellipse transform="matrix(0.8437 -0.5369 0.5369 0.8437 -43.5351 58.06)" class="st7" cx="77.9" cy="103.8" rx="2.8" ry="2.8"/>
	<path class="st7" d="M66.3,105.5h11.5c1,0,1.8-0.8,1.8-1.8l0,0c0-1-0.8-1.8-1.8-1.8H66.3c-1,0-1.8,0.8-1.8,1.8l0,0
		C64.5,104.7,65.3,105.5,66.3,105.5z"/>
	<ellipse transform="matrix(0.8437 -0.5369 0.5369 0.8437 -57.9869 62.2512)" class="st7" cx="77.9" cy="130.7" rx="2.8" ry="2.8"/>
	<path class="st7" d="M66.3,132.5h11.5c1,0,1.8-0.8,1.8-1.8l0,0c0-1-0.8-1.8-1.8-1.8H66.3c-1,0-1.8,0.8-1.8,1.8l0,0
		C64.5,131.7,65.3,132.5,66.3,132.5z"/>
	<ellipse transform="matrix(0.8437 -0.5369 0.5369 0.8437 -72.4756 66.4844)" class="st7" cx="77.9" cy="157.7" rx="2.8" ry="2.8"/>
	<path class="st7" d="M66.3,159.4h11.5c1,0,1.8-0.8,1.8-1.8l0,0c0-1-0.8-1.8-1.8-1.8H66.3c-1,0-1.8,0.8-1.8,1.8l0,0
		C64.5,158.6,65.3,159.4,66.3,159.4z"/>
	<ellipse transform="matrix(0.8437 -0.5369 0.5369 0.8437 -86.9274 70.6756)" class="st7" cx="77.9" cy="184.6" rx="2.8" ry="2.8"/>
	<path class="st7" d="M66.3,186.4h11.5c1,0,1.8-0.8,1.8-1.8l0,0c0-1-0.8-1.8-1.8-1.8H66.3c-1,0-1.8,0.8-1.8,1.8l0,0
		C64.5,185.6,65.3,186.4,66.3,186.4z"/>
	
		<ellipse transform="matrix(0.8437 -0.5369 0.5369 0.8437 -101.4162 74.9088)" class="st7" cx="77.9" cy="211.6" rx="2.8" ry="2.8"/>
	<path class="st7" d="M66.3,213.4h11.5c1,0,1.8-0.8,1.8-1.8l0,0c0-1-0.8-1.8-1.8-1.8H66.3c-1,0-1.8,0.8-1.8,1.8l0,0
		C64.5,212.6,65.3,213.4,66.3,213.4z"/>
	<line class="st5" x1="150.1" y1="175.5" x2="88.6" y2="175.5"/>
	<line class="st5" x1="150.1" y1="205.7" x2="88.6" y2="205.7"/>
</g>
</svg>
