<?xml version="1.0" encoding="utf-8"?>
<!-- Generator: Adobe Illustrator 21.1.0, SVG Export Plug-In . SVG Version: 6.00 Build 0)  -->
<svg version="1.1" id="Слой_1" xmlns="http://www.w3.org/2000/svg" xmlns:xlink="http://www.w3.org/1999/xlink" x="0px" y="0px"
	 viewBox="0 0 250 250" style="enable-background:new 0 0 250 250;" xml:space="preserve">
<style type="text/css">
	.st0{fill:#FFFFFF;stroke:#041B88;stroke-width:4;stroke-miterlimit:10;}
	.st1{fill:none;stroke:#041B88;stroke-width:4;stroke-miterlimit:10;}
	.st2{display:none;fill:none;stroke:#041B88;stroke-width:2;stroke-miterlimit:10;}
	.st3{fill:none;}
	.st4{enable-background:new    ;}
	.st5{fill:#041B88;}
	.st6{fill:#FFFFFF;stroke:#FF8400;stroke-width:4;stroke-miterlimit:10;}
</style>
<path class="st0" d="M110.3,171.1H49.9c-2.8,0-5-2.2-5-5V67.8c0-2.8,2.2-5,5-5h60.4c2.8,0,5,2.2,5,5v98.3
	C115.3,168.9,113.1,171.1,110.3,171.1z"/>
<line class="st1" x1="100.5" y1="107" x2="59.7" y2="107"/>
<line class="st1" x1="100.5" y1="87" x2="59.7" y2="87"/>
<line class="st1" x1="100.5" y1="126.9" x2="59.7" y2="126.9"/>
<line class="st1" x1="100.5" y1="146.9" x2="59.7" y2="146.9"/>
<path class="st0" d="M154.1,201.2H93.7c-2.8,0-5-2.2-5-5V97.9c0-2.8,2.2-5,5-5h60.4c2.8,0,5,2.2,5,5v98.3
	C159.1,199,156.9,201.2,154.1,201.2z"/>
<line class="st2" x1="0" y1="0" x2="250" y2="250"/>
<line class="st2" x1="0" y1="250" x2="250" y2="0"/>
<rect y="15.9" class="st3" width="250" height="25"/>
<g class="st4">
	<path class="st5" d="M44.6,37.9h-3.5l-7.6-10v10h-2.8V17.5h2.8V27l7.5-9.5h3.3l-8.1,9.7L44.6,37.9z"/>
	<path class="st5" d="M62.6,27.6c0,1.8-0.2,3.4-0.6,4.8c-0.4,1.3-1,2.4-1.8,3.3c-0.7,0.9-1.6,1.5-2.6,1.9s-2,0.6-3.1,0.6
		c-1.3,0-2.5-0.2-3.4-0.7c-1-0.5-1.8-1.2-2.4-2.1c-0.6-0.9-1.1-2-1.4-3.3c-0.3-1.3-0.5-2.7-0.5-4.4c0-1.8,0.2-3.4,0.6-4.7
		c0.4-1.3,1-2.4,1.7-3.3c0.7-0.9,1.6-1.5,2.6-1.9c1-0.4,2-0.6,3.1-0.6c1.3,0,2.5,0.2,3.4,0.7c1,0.5,1.8,1.2,2.4,2.1
		c0.6,0.9,1.1,2,1.4,3.3C62.4,24.5,62.6,26,62.6,27.6z M59.7,27.8c0-1.2-0.1-2.3-0.3-3.3c-0.2-1-0.5-1.9-0.9-2.6s-0.9-1.3-1.6-1.7
		c-0.6-0.4-1.4-0.6-2.3-0.6c-0.9,0-1.6,0.2-2.3,0.6c-0.6,0.4-1.1,1-1.6,1.7c-0.4,0.7-0.7,1.6-0.9,2.5c-0.2,1-0.3,2-0.3,3.1
		c0,1.2,0.1,2.3,0.3,3.3c0.2,1,0.5,1.8,0.9,2.6c0.4,0.7,0.9,1.3,1.6,1.7c0.6,0.4,1.4,0.6,2.3,0.6c0.9,0,1.6-0.2,2.3-0.6
		c0.6-0.4,1.2-1,1.6-1.7c0.4-0.7,0.7-1.6,0.9-2.5C59.6,29.9,59.7,28.9,59.7,27.8z"/>
	<path class="st5" d="M79.2,37.9h-2.8V20H68v18h-2.8V17.5h13.9V37.9z"/>
	<path class="st5" d="M85.7,17.5v15.4l8.5-15.4h2.6v20.4H94V22.5l-8.4,15.4h-2.7V17.5H85.7z"/>
	<path class="st5" d="M114.5,23.8c0,0.8-0.2,1.7-0.5,2.5c-0.3,0.8-0.8,1.5-1.5,2.2c-0.7,0.6-1.5,1.2-2.5,1.6c-1,0.4-2.2,0.6-3.7,0.6
		h-2.5v7.3h-2.8V17.5h5.8c1,0,2,0.1,2.9,0.3c0.9,0.2,1.7,0.6,2.4,1.1s1.3,1.1,1.7,1.9C114.3,21.7,114.5,22.6,114.5,23.8z
		 M111.6,23.9c0-1.3-0.4-2.3-1.3-3c-0.9-0.7-2.1-1-3.6-1h-2.8v8.4h2.6c1.6,0,2.9-0.4,3.8-1.1S111.6,25.3,111.6,23.9z"/>
	<path class="st5" d="M132.9,27.6c0,1.8-0.2,3.4-0.6,4.8c-0.4,1.3-1,2.4-1.8,3.3c-0.7,0.9-1.6,1.5-2.6,1.9s-2,0.6-3.1,0.6
		c-1.3,0-2.5-0.2-3.4-0.7c-1-0.5-1.8-1.2-2.4-2.1c-0.6-0.9-1.1-2-1.4-3.3c-0.3-1.3-0.5-2.7-0.5-4.4c0-1.8,0.2-3.4,0.6-4.7
		c0.4-1.3,1-2.4,1.7-3.3c0.7-0.9,1.6-1.5,2.6-1.9c1-0.4,2-0.6,3.1-0.6c1.3,0,2.5,0.2,3.4,0.7c1,0.5,1.8,1.2,2.4,2.1
		c0.6,0.9,1.1,2,1.4,3.3C132.8,24.5,132.9,26,132.9,27.6z M130,27.8c0-1.2-0.1-2.3-0.3-3.3c-0.2-1-0.5-1.9-0.9-2.6s-0.9-1.3-1.6-1.7
		c-0.6-0.4-1.4-0.6-2.3-0.6c-0.9,0-1.6,0.2-2.3,0.6c-0.6,0.4-1.1,1-1.6,1.7c-0.4,0.7-0.7,1.6-0.9,2.5c-0.2,1-0.3,2-0.3,3.1
		c0,1.2,0.1,2.3,0.3,3.3c0.2,1,0.5,1.8,0.9,2.6c0.4,0.7,0.9,1.3,1.6,1.7c0.6,0.4,1.4,0.6,2.3,0.6c0.9,0,1.6-0.2,2.3-0.6
		c0.6-0.4,1.2-1,1.6-1.7c0.4-0.7,0.7-1.6,0.9-2.5C129.9,29.9,130,28.9,130,27.8z"/>
	<path class="st5" d="M149.7,31.8c0,1-0.2,1.8-0.6,2.6c-0.4,0.8-0.9,1.4-1.6,1.9c-0.7,0.5-1.6,0.9-2.5,1.2c-1,0.3-2.1,0.4-3.3,0.4
		h-5.3V17.5h5.8c4.6,0,6.8,1.7,6.8,5c0,1.1-0.3,2.1-0.8,2.8c-0.5,0.8-1.4,1.4-2.6,1.8c0.6,0.1,1.1,0.3,1.6,0.5
		c0.5,0.3,0.9,0.6,1.3,1c0.4,0.4,0.7,0.9,0.9,1.4C149.6,30.5,149.7,31.1,149.7,31.8z M146,22.9c0-0.4-0.1-0.8-0.2-1.2
		c-0.1-0.4-0.3-0.7-0.7-1s-0.7-0.5-1.3-0.6s-1.2-0.2-2-0.2H139v6.4h2.8c0.6,0,1.2-0.1,1.7-0.2c0.5-0.1,1-0.3,1.3-0.6
		c0.4-0.3,0.7-0.6,0.9-1.1S146,23.4,146,22.9z M146.7,31.9c0-0.5-0.1-1-0.3-1.4c-0.2-0.4-0.5-0.8-1-1.1c-0.4-0.3-0.9-0.5-1.5-0.7
		c-0.6-0.2-1.3-0.2-2-0.2H139v7h2.9c1.6,0,2.8-0.3,3.6-0.9S146.7,33.2,146.7,31.9z"/>
	<path class="st5" d="M168.8,37.9h-3l-1.4-4.5h-8.5l-1.4,4.5h-2.9l6.8-20.4h3.8L168.8,37.9z M163.6,31l-3.5-10.9L156.7,31H163.6z"/>
	<path class="st5" d="M184.9,37.9h-2.8v-9.4h-8.6v9.4h-2.8V17.5h2.8v8.6h8.6v-8.6h2.8V37.9z"/>
	<path class="st5" d="M191.2,17.5v15.4l8.5-15.4h2.6v20.4h-2.8V22.5l-8.4,15.4h-2.7V17.5H191.2z"/>
	<path class="st5" d="M218.9,37.9h-11.6V17.5h11.6v2.3h-8.8v6.3h8.5v2.3h-8.5v7h8.8V37.9z"/>
</g>
<path class="st6" d="M173.7,85.5"/>
<path class="st6" d="M173.7,112.7"/>
<line class="st1" x1="144.3" y1="137.1" x2="103.6" y2="137.1"/>
<line class="st1" x1="144.3" y1="117.1" x2="103.6" y2="117.1"/>
<line class="st1" x1="144.3" y1="157.1" x2="103.6" y2="157.1"/>
<line class="st1" x1="144.3" y1="177" x2="103.6" y2="177"/>
<path class="st0" d="M198,231.4h-60.4c-2.8,0-5-2.2-5-5v-98.3c0-2.8,2.2-5,5-5H198c2.8,0,5,2.2,5,5v98.3
	C203,229.1,200.7,231.4,198,231.4z"/>
<path class="st6" d="M217.5,112.7"/>
<path class="st6" d="M217.5,139.8"/>
<line class="st1" x1="188.1" y1="167.1" x2="147.4" y2="167.1"/>
<line class="st1" x1="188.1" y1="147.1" x2="147.4" y2="147.1"/>
<line class="st1" x1="188.1" y1="187.1" x2="147.4" y2="187.1"/>
<line class="st1" x1="188.1" y1="207.1" x2="147.4" y2="207.1"/>
</svg>
