<?xml version="1.0" encoding="utf-8"?>
<!-- Generator: Adobe Illustrator 21.1.0, SVG Export Plug-In . SVG Version: 6.00 Build 0)  -->
<svg version="1.1" id="Слой_1" xmlns="http://www.w3.org/2000/svg" xmlns:xlink="http://www.w3.org/1999/xlink" x="0px" y="0px"
	 viewBox="0 0 250 250" style="enable-background:new 0 0 250 250;" xml:space="preserve">
<style type="text/css">
	.st0{display:none;fill:none;stroke:#041B88;stroke-width:2;stroke-miterlimit:10;}
	.st1{fill:none;}
	.st2{enable-background:new    ;}
	.st3{fill:#FF8400;}
	.st4{fill:#FFFFFF;stroke:#FF8400;stroke-width:4;stroke-miterlimit:10;}
	.st5{fill:none;stroke:#FF8400;stroke-width:4;stroke-miterlimit:10;}
</style>
<g id="Слой_1_1_">
	<line class="st0" x1="0" y1="0" x2="250" y2="250"/>
	<line class="st0" x1="0" y1="250" x2="250" y2="0"/>
	<rect y="15.9" class="st1" width="250" height="25"/>
	<g class="st2">
		<path class="st3" d="M26.9,19.9h-6v18H18v-18h-6v-2.4h14.9V19.9z"/>
		<path class="st3" d="M32.9,17.5v15.4l8.5-15.4H44v20.4h-2.8V22.5l-8.4,15.4h-2.7V17.5H32.9z"/>
		<path class="st3" d="M61.7,23.8c0,0.8-0.2,1.7-0.5,2.5c-0.3,0.8-0.8,1.5-1.5,2.2c-0.7,0.6-1.5,1.2-2.5,1.6c-1,0.4-2.2,0.6-3.7,0.6
			h-2.5v7.3h-2.8V17.5H54c1,0,2,0.1,2.9,0.3c0.9,0.2,1.7,0.6,2.4,1.1s1.3,1.1,1.7,1.9C61.5,21.7,61.7,22.6,61.7,23.8z M58.8,23.9
			c0-1.3-0.4-2.3-1.3-3c-0.9-0.7-2.1-1-3.6-1h-2.8v8.4h2.6c1.6,0,2.9-0.4,3.8-1.1S58.8,25.3,58.8,23.9z"/>
		<path class="st3" d="M80.9,37.9h-3l-1.4-4.5h-8.5l-1.4,4.5h-2.9l6.8-20.4h3.8L80.9,37.9z M75.6,31l-3.5-10.9L68.7,31H75.6z"/>
		<path class="st3" d="M91.1,27.4l4.8-9.9h2.7l-4.8,9.8l5.1,10.6h-3L91.1,27.4v10.5h-2.6V27.5l-4.8,10.5h-2.9l5-10.5l-4.8-9.9h2.7
			l4.7,9.9v-9.9h2.6V27.4z"/>
		<path class="st3" d="M103.2,17.5v15.4l8.5-15.4h2.6v20.4h-2.8V22.5l-8.4,15.4h-2.7V17.5H103.2z"/>
		<path class="st3" d="M132.1,23.8c0,0.8-0.2,1.7-0.5,2.5c-0.3,0.8-0.8,1.5-1.5,2.2c-0.7,0.6-1.5,1.2-2.5,1.6
			c-1,0.4-2.2,0.6-3.7,0.6h-2.5v7.3h-2.8V17.5h5.8c1,0,2,0.1,2.9,0.3c0.9,0.2,1.7,0.6,2.4,1.1s1.3,1.1,1.7,1.9
			C131.9,21.7,132.1,22.6,132.1,23.8z M129.2,23.9c0-1.3-0.4-2.3-1.3-3c-0.9-0.7-2.1-1-3.6-1h-2.8v8.4h2.6c1.6,0,2.9-0.4,3.8-1.1
			S129.2,25.3,129.2,23.9z"/>
		<path class="st3" d="M150.5,27.6c0,1.8-0.2,3.4-0.6,4.8c-0.4,1.3-1,2.4-1.8,3.3c-0.7,0.9-1.6,1.5-2.6,1.9s-2,0.6-3.1,0.6
			c-1.3,0-2.5-0.2-3.4-0.7c-1-0.5-1.8-1.2-2.4-2.1c-0.6-0.9-1.1-2-1.4-3.3c-0.3-1.3-0.5-2.7-0.5-4.4c0-1.8,0.2-3.4,0.6-4.7
			c0.4-1.3,1-2.4,1.7-3.3c0.7-0.9,1.6-1.5,2.6-1.9c1-0.4,2-0.6,3.1-0.6c1.3,0,2.5,0.2,3.4,0.7c1,0.5,1.8,1.2,2.4,2.1
			c0.6,0.9,1.1,2,1.4,3.3C150.4,24.5,150.5,26,150.5,27.6z M147.6,27.8c0-1.2-0.1-2.3-0.3-3.3c-0.2-1-0.5-1.9-0.9-2.6
			s-0.9-1.3-1.6-1.7c-0.6-0.4-1.4-0.6-2.3-0.6c-0.9,0-1.6,0.2-2.3,0.6c-0.6,0.4-1.1,1-1.6,1.7c-0.4,0.7-0.7,1.6-0.9,2.5
			c-0.2,1-0.3,2-0.3,3.1c0,1.2,0.1,2.3,0.3,3.3c0.2,1,0.5,1.8,0.9,2.6c0.4,0.7,0.9,1.3,1.6,1.7c0.6,0.4,1.4,0.6,2.3,0.6
			c0.9,0,1.6-0.2,2.3-0.6c0.6-0.4,1.2-1,1.6-1.7c0.4-0.7,0.7-1.6,0.9-2.5C147.5,29.9,147.6,28.9,147.6,27.8z"/>
		<path class="st3" d="M167.3,31.8c0,1-0.2,1.8-0.6,2.6c-0.4,0.8-0.9,1.4-1.6,1.9c-0.7,0.5-1.6,0.9-2.5,1.2c-1,0.3-2.1,0.4-3.3,0.4
			h-5.3V17.5h5.8c4.6,0,6.8,1.7,6.8,5c0,1.1-0.3,2.1-0.8,2.8c-0.5,0.8-1.4,1.4-2.6,1.8c0.6,0.1,1.1,0.3,1.6,0.5
			c0.5,0.3,0.9,0.6,1.3,1c0.4,0.4,0.7,0.9,0.9,1.4C167.2,30.5,167.3,31.1,167.3,31.8z M163.6,22.9c0-0.4-0.1-0.8-0.2-1.2
			c-0.1-0.4-0.3-0.7-0.7-1s-0.7-0.5-1.3-0.6s-1.2-0.2-2-0.2h-2.9v6.4h2.8c0.6,0,1.2-0.1,1.7-0.2c0.5-0.1,1-0.3,1.3-0.6
			c0.4-0.3,0.7-0.6,0.9-1.1S163.6,23.4,163.6,22.9z M164.3,31.9c0-0.5-0.1-1-0.3-1.4c-0.2-0.4-0.5-0.8-1-1.1
			c-0.4-0.3-0.9-0.5-1.5-0.7c-0.6-0.2-1.3-0.2-2-0.2h-2.8v7h2.9c1.6,0,2.8-0.3,3.6-0.9S164.3,33.2,164.3,31.9z"/>
		<path class="st3" d="M186.4,37.9h-3l-1.4-4.5h-8.5l-1.4,4.5h-2.9l6.8-20.4h3.8L186.4,37.9z M181.2,31l-3.5-10.9L174.3,31H181.2z"
			/>
		<path class="st3" d="M202.5,37.9h-2.8v-9.4h-8.6v9.4h-2.8V17.5h2.8v8.6h8.6v-8.6h2.8V37.9z"/>
		<path class="st3" d="M208.8,17.5v15.4l8.5-15.4h2.6v20.4h-2.8V22.5l-8.4,15.4H206V17.5H208.8z"/>
		<path class="st3" d="M236.5,37.9h-11.6V17.5h11.6v2.3h-8.8v6.3h8.5v2.3h-8.5v7h8.8V37.9z"/>
	</g>
</g>
<g id="Слой_2">
	<path class="st4" d="M56.1,223.6h60.4c2.8,0,5-2.2,5-5v-98.3c0-2.8-2.2-5-5-5H56.1c-2.8,0-5,2.2-5,5v98.3
		C51.1,221.4,53.4,223.6,56.1,223.6z"/>
	<path class="st4" d="M47.6,231.4H108c2.8,0,5-2.2,5-5v-98.3c0-2.8-2.2-5-5-5H47.6c-2.8,0-5,2.2-5,5v98.3
		C42.6,229.1,44.9,231.4,47.6,231.4z"/>
	<line class="st5" x1="43.8" y1="124.8" x2="53.1" y2="116.3"/>
	<line class="st5" x1="111.3" y1="124.8" x2="120.6" y2="116.3"/>
	<line class="st5" x1="111.4" y1="230" x2="120.7" y2="221.5"/>
	<line class="st5" x1="100.7" y1="177.2" x2="52.4" y2="177.2"/>
	<line class="st5" x1="100.7" y1="153.5" x2="52.4" y2="153.5"/>
	<line class="st5" x1="100.7" y1="200.9" x2="52.4" y2="200.9"/>
	<path class="st4" d="M143.4,163.5h60.4c2.8,0,5-2.2,5-5V60.2c0-2.8-2.2-5-5-5h-60.4c-2.8,0-5,2.2-5,5v98.3
		C138.4,161.2,140.6,163.5,143.4,163.5z"/>
	<path class="st4" d="M134.9,171.2h60.4c2.8,0,5-2.2,5-5V67.9c0-2.8-2.2-5-5-5h-60.4c-2.8,0-5,2.2-5,5v98.3
		C129.9,169,132.1,171.2,134.9,171.2z"/>
	<line class="st5" x1="131.1" y1="64.7" x2="140.4" y2="56.2"/>
	<line class="st5" x1="198.5" y1="64.7" x2="207.8" y2="56.2"/>
	<line class="st5" x1="198.7" y1="169.9" x2="208" y2="161.4"/>
	<line class="st5" x1="188" y1="117.1" x2="139.6" y2="117.1"/>
	<line class="st5" x1="188" y1="93.4" x2="139.6" y2="93.4"/>
	<line class="st5" x1="188" y1="140.8" x2="139.6" y2="140.8"/>
	<path class="st4" d="M99.9,193.5h60.4c2.8,0,5-2.2,5-5V90.2c0-2.8-2.2-5-5-5H99.9c-2.8,0-5,2.2-5,5v98.3
		C94.9,191.3,97.1,193.5,99.9,193.5z"/>
	<path class="st4" d="M91.3,201.2h60.4c2.8,0,5-2.2,5-5V97.9c0-2.8-2.2-5-5-5H91.3c-2.8,0-5,2.2-5,5v98.3
		C86.3,199,88.6,201.2,91.3,201.2z"/>
	<line class="st5" x1="87.6" y1="94.7" x2="96.9" y2="86.2"/>
	<line class="st5" x1="155" y1="94.7" x2="164.3" y2="86.2"/>
	<line class="st5" x1="155.1" y1="199.9" x2="164.4" y2="191.4"/>
	<line class="st5" x1="144.4" y1="147.1" x2="96.1" y2="147.1"/>
	<line class="st5" x1="144.4" y1="123.4" x2="96.1" y2="123.4"/>
	<line class="st5" x1="144.4" y1="170.8" x2="96.1" y2="170.8"/>
	<path class="st4" d="M55.9,223.6h60.4c2.8,0,5-2.2,5-5v-98.3c0-2.8-2.2-5-5-5H55.9c-2.8,0-5,2.2-5,5v98.3
		C50.9,221.4,53.1,223.6,55.9,223.6z"/>
	<path class="st4" d="M47.4,231.4h60.4c2.8,0,5-2.2,5-5v-98.3c0-2.8-2.2-5-5-5H47.4c-2.8,0-5,2.2-5,5v98.3
		C42.4,229.1,44.6,231.4,47.4,231.4z"/>
	<line class="st5" x1="43.6" y1="124.8" x2="52.9" y2="116.3"/>
	<line class="st5" x1="111" y1="124.8" x2="120.3" y2="116.3"/>
	<line class="st5" x1="111.2" y1="230" x2="120.5" y2="221.6"/>
	<line class="st5" x1="100.5" y1="177.2" x2="52.1" y2="177.2"/>
	<line class="st5" x1="100.5" y1="153.5" x2="52.1" y2="153.5"/>
	<line class="st5" x1="100.5" y1="200.9" x2="52.1" y2="200.9"/>
</g>
</svg>
