<?xml version="1.0" encoding="utf-8"?>
<!-- Generator: Adobe Illustrator 21.1.0, SVG Export Plug-In . SVG Version: 6.00 Build 0)  -->
<svg version="1.1" id="Слой_1" xmlns="http://www.w3.org/2000/svg" xmlns:xlink="http://www.w3.org/1999/xlink" x="0px" y="0px"
	 viewBox="0 0 250 250" style="enable-background:new 0 0 250 250;" xml:space="preserve">
<style type="text/css">
	.st0{display:none;fill:#FFFFFF;stroke:#FF8400;stroke-width:4;stroke-miterlimit:10;}
	.st1{display:none;fill:none;stroke:#041B88;stroke-width:2;stroke-miterlimit:10;}
	.st2{fill:none;}
	.st3{enable-background:new    ;}
	.st4{fill:#041B88;}
	.st5{fill:#FFFFFF;stroke:#041B88;stroke-width:4;stroke-miterlimit:10;}
	.st6{fill:none;stroke:#041B88;stroke-width:4;stroke-miterlimit:10;}
</style>
<path class="st0" d="M139.1,177.1h60.4c2.8,0,5-2.2,5-5V73.8c0-2.8-2.2-5-5-5h-60.4c-2.8,0-5,2.2-5,5v98.3
	C134.1,174.9,136.3,177.1,139.1,177.1z"/>
<path class="st0" d="M95.2,204.2h60.4c2.8,0,5-2.2,5-5v-98.3c0-2.8-2.2-5-5-5H95.2c-2.8,0-5,2.2-5,5v98.3
	C90.2,202,92.5,204.2,95.2,204.2z"/>
<line class="st1" x1="0" y1="0" x2="250" y2="250"/>
<line class="st1" x1="0" y1="250" x2="250" y2="0"/>
<rect y="15.9" class="st2" width="250" height="25"/>
<g class="st3">
	<path class="st4" d="M88,37.9h-2.8V20h-8.4v18H74V17.5H88V37.9z"/>
	<path class="st4" d="M104.6,37.9H93V17.5h11.6v2.3h-8.8v6.3h8.5v2.3h-8.5v7h8.8V37.9z"/>
	<path class="st4" d="M120.5,28.9c-0.6,0.2-1.2,0.4-2,0.5c-0.8,0.2-1.6,0.2-2.5,0.2c-1.3,0-2.4-0.2-3.2-0.5
		c-0.9-0.3-1.6-0.8-2.2-1.4c-0.6-0.6-1-1.3-1.2-2.2c-0.3-0.9-0.4-1.8-0.4-2.9v-5.2h2.8v5c0,0.8,0.1,1.5,0.2,2.1
		c0.2,0.6,0.4,1.1,0.8,1.5s0.8,0.7,1.3,0.9c0.5,0.2,1.2,0.3,2,0.3c0.8,0,1.6-0.1,2.4-0.2c0.8-0.1,1.4-0.3,2-0.5v-9.1h2.8v20.4h-2.8
		V28.9z"/>
	<path class="st4" d="M142.4,37.9h-3l-1.4-4.5h-8.5l-1.4,4.5h-2.9l6.8-20.4h3.8L142.4,37.9z M137.2,31l-3.5-10.9L130.3,31H137.2z"/>
	<path class="st4" d="M158.8,19.9h-6v18H150v-18h-6v-2.4h14.9V19.9z"/>
	<path class="st4" d="M165.4,25.6h3.3c1.3,0,2.4,0.2,3.4,0.5c1,0.3,1.7,0.7,2.4,1.3c0.6,0.5,1.1,1.2,1.4,1.9
		c0.3,0.7,0.5,1.5,0.5,2.3c0,1-0.2,1.9-0.6,2.7c-0.4,0.8-0.9,1.5-1.6,2s-1.5,1-2.5,1.3c-1,0.3-2.1,0.4-3.3,0.4h-5.8V17.5h2.8V25.6z
		 M173.4,31.7c0-0.6-0.1-1.1-0.3-1.6c-0.2-0.5-0.4-0.9-0.8-1.2c-0.4-0.3-0.9-0.6-1.5-0.8c-0.6-0.2-1.4-0.3-2.3-0.3h-3.1v7.7h3.2
		c1.6,0,2.8-0.3,3.6-1C173,33.9,173.4,32.9,173.4,31.7z"/>
</g>
<path class="st0" d="M75.7,85.5"/>
<path class="st0" d="M75.7,112.7"/>
<path class="st0" d="M51.4,231.4h60.4c2.8,0,5-2.2,5-5v-98.3c0-2.8-2.2-5-5-5H51.4c-2.8,0-5,2.2-5,5v98.3
	C46.4,229.1,48.6,231.4,51.4,231.4z"/>
<path class="st0" d="M44.9,112.7"/>
<path class="st0" d="M44.9,139.8"/>
<path class="st5" d="M191.4,188.8H56.6c-12.5,0-22.6-10.1-22.6-22.6V127c0-12.5,10.1-22.6,22.6-22.6h134.8
	c12.5,0,22.6,10.1,22.6,22.6v39.3C214,178.7,203.9,188.8,191.4,188.8z"/>
<path class="st5" d="M156,62.5H92c-3.4,0-6.1,2.7-6.1,6.1v35.8H162V68.6C162.1,65.2,159.3,62.5,156,62.5z"/>
<path class="st5" d="M162.1,154.9H85.9v68.3c0,3.4,2.7,6.1,6.1,6.1h64c3.4,0,6.1-2.7,6.1-6.1V154.9z"/>
<path class="st5" d="M113,173.7"/>
<path class="st5" d="M102.4,179.8"/>
<line class="st6" x1="144.4" y1="193.6" x2="103.6" y2="193.6"/>
<line class="st6" x1="144.4" y1="173.7" x2="103.6" y2="173.7"/>
<line class="st6" x1="144.4" y1="213.6" x2="103.6" y2="213.6"/>
<circle class="st5" cx="193" cy="126.6" r="4.5"/>
</svg>
