<?xml version="1.0" encoding="utf-8"?>
<!-- Generator: Adobe Illustrator 21.1.0, SVG Export Plug-In . SVG Version: 6.00 Build 0)  -->
<svg version="1.1" id="Слой_1" xmlns="http://www.w3.org/2000/svg" xmlns:xlink="http://www.w3.org/1999/xlink" x="0px" y="0px"
	 viewBox="0 0 250 250" style="enable-background:new 0 0 250 250;" xml:space="preserve">
<style type="text/css">
	.st0{display:none;fill:#FFFFFF;stroke:#FF8400;stroke-width:4;stroke-miterlimit:10;}
	.st1{display:none;fill:none;stroke:#041B88;stroke-width:2;stroke-miterlimit:10;}
	.st2{fill:none;}
	.st3{enable-background:new    ;}
	.st4{fill:#041B88;}
	.st5{fill:#FFFFFF;stroke:#041B88;stroke-width:4;stroke-miterlimit:10;}
	.st6{display:none;fill:none;stroke:#FF00FF;stroke-width:4;stroke-miterlimit:10;}
	.st7{fill:none;stroke:#041B88;stroke-width:4;stroke-miterlimit:10;}
</style>
<g id="Слой_1_1_">
	<path class="st0" d="M51.4,231.4h60.4c2.8,0,5-2.2,5-5v-98.3c0-2.8-2.2-5-5-5H51.4c-2.8,0-5,2.2-5,5v98.3
		C46.4,229.1,48.6,231.4,51.4,231.4z"/>
	<path class="st0" d="M139.1,177.1h60.4c2.8,0,5-2.2,5-5V73.8c0-2.8-2.2-5-5-5h-60.4c-2.8,0-5,2.2-5,5v98.3
		C134.1,174.9,136.3,177.1,139.1,177.1z"/>
	<path class="st0" d="M95.2,204.2h60.4c2.8,0,5-2.2,5-5v-98.3c0-2.8-2.2-5-5-5H95.2c-2.8,0-5,2.2-5,5v98.3
		C90.2,202,92.5,204.2,95.2,204.2z"/>
	<line class="st1" x1="0" y1="0" x2="250" y2="250"/>
	<line class="st1" x1="0" y1="250" x2="250" y2="0"/>
	<rect y="15.9" class="st2" width="250" height="25"/>
	<g class="st3">
		<path class="st4" d="M35,37.2c-1.6,0.7-3.3,1-5.1,1c-2.9,0-5.1-0.9-6.6-2.6c-1.5-1.7-2.3-4.3-2.3-7.6c0-1.6,0.2-3.1,0.6-4.4
			c0.4-1.3,1-2.4,1.8-3.4c0.8-0.9,1.8-1.6,2.9-2.1s2.4-0.8,3.8-0.8c0.9,0,1.8,0.1,2.6,0.2c0.8,0.2,1.6,0.4,2.3,0.7V21
			c-0.7-0.4-1.5-0.7-2.3-0.9c-0.8-0.2-1.7-0.3-2.6-0.3c-1,0-1.8,0.2-2.6,0.5c-0.8,0.4-1.4,0.9-2,1.6c-0.5,0.7-1,1.5-1.3,2.5
			c-0.3,1-0.4,2.1-0.4,3.4c0,2.6,0.5,4.6,1.6,6c1.1,1.3,2.6,2,4.7,2c0.9,0,1.7-0.1,2.5-0.3c0.8-0.2,1.6-0.5,2.3-0.9V37.2z"/>
		<path class="st4" d="M53.4,37.9h-3.5l-7.6-10v10h-2.8V17.5h2.8V27l7.5-9.5H53L45,27.2L53.4,37.9z"/>
		<path class="st4" d="M72.1,37.9h-3l-1.4-4.5h-8.5l-1.4,4.5h-2.9l6.8-20.4h3.8L72.1,37.9z M66.8,31l-3.5-10.9L59.9,31H66.8z"/>
		<path class="st4" d="M88.1,37.9h-2.8v-9.4h-8.6v9.4H74V17.5h2.8v8.6h8.6v-8.6h2.8V37.9z"/>
		<path class="st4" d="M94.5,17.5v15.4l8.5-15.4h2.6v20.4h-2.8V22.5l-8.4,15.4h-2.7V17.5H94.5z"/>
		<path class="st4" d="M123.3,23.8c0,0.8-0.2,1.7-0.5,2.5c-0.3,0.8-0.8,1.5-1.5,2.2c-0.7,0.6-1.5,1.2-2.5,1.6
			c-1,0.4-2.2,0.6-3.7,0.6h-2.5v7.3h-2.8V17.5h5.8c1,0,2,0.1,2.9,0.3c0.9,0.2,1.7,0.6,2.4,1.1s1.3,1.1,1.7,1.9
			C123.1,21.7,123.3,22.6,123.3,23.8z M120.4,23.9c0-1.3-0.4-2.3-1.3-3c-0.9-0.7-2.1-1-3.6-1h-2.8v8.4h2.6c1.6,0,2.9-0.4,3.8-1.1
			S120.4,25.3,120.4,23.9z"/>
		<path class="st4" d="M141.7,27.6c0,1.8-0.2,3.4-0.6,4.8c-0.4,1.3-1,2.4-1.8,3.3c-0.7,0.9-1.6,1.5-2.6,1.9s-2,0.6-3.1,0.6
			c-1.3,0-2.5-0.2-3.4-0.7c-1-0.5-1.8-1.2-2.4-2.1c-0.6-0.9-1.1-2-1.4-3.3c-0.3-1.3-0.5-2.7-0.5-4.4c0-1.8,0.2-3.4,0.6-4.7
			c0.4-1.3,1-2.4,1.7-3.3c0.7-0.9,1.6-1.5,2.6-1.9c1-0.4,2-0.6,3.1-0.6c1.3,0,2.5,0.2,3.4,0.7c1,0.5,1.8,1.2,2.4,2.1
			c0.6,0.9,1.1,2,1.4,3.3C141.6,24.5,141.7,26,141.7,27.6z M138.8,27.8c0-1.2-0.1-2.3-0.3-3.3c-0.2-1-0.5-1.9-0.9-2.6
			s-0.9-1.3-1.6-1.7c-0.6-0.4-1.4-0.6-2.3-0.6c-0.9,0-1.6,0.2-2.3,0.6c-0.6,0.4-1.1,1-1.6,1.7c-0.4,0.7-0.7,1.6-0.9,2.5
			c-0.2,1-0.3,2-0.3,3.1c0,1.2,0.1,2.3,0.3,3.3c0.2,1,0.5,1.8,0.9,2.6c0.4,0.7,0.9,1.3,1.6,1.7c0.6,0.4,1.4,0.6,2.3,0.6
			c0.9,0,1.6-0.2,2.3-0.6c0.6-0.4,1.2-1,1.6-1.7c0.4-0.7,0.7-1.6,0.9-2.5C138.7,29.9,138.8,28.9,138.8,27.8z"/>
		<path class="st4" d="M158.5,31.8c0,1-0.2,1.8-0.6,2.6c-0.4,0.8-0.9,1.4-1.6,1.9c-0.7,0.5-1.6,0.9-2.5,1.2c-1,0.3-2.1,0.4-3.3,0.4
			h-5.3V17.5h5.8c4.6,0,6.8,1.7,6.8,5c0,1.1-0.3,2.1-0.8,2.8c-0.5,0.8-1.4,1.4-2.6,1.8c0.6,0.1,1.1,0.3,1.6,0.5
			c0.5,0.3,0.9,0.6,1.3,1c0.4,0.4,0.7,0.9,0.9,1.4C158.4,30.5,158.5,31.1,158.5,31.8z M154.8,22.9c0-0.4-0.1-0.8-0.2-1.2
			c-0.1-0.4-0.3-0.7-0.7-1s-0.7-0.5-1.3-0.6s-1.2-0.2-2-0.2h-2.9v6.4h2.8c0.6,0,1.2-0.1,1.7-0.2c0.5-0.1,1-0.3,1.3-0.6
			c0.4-0.3,0.7-0.6,0.9-1.1S154.8,23.4,154.8,22.9z M155.5,31.9c0-0.5-0.1-1-0.3-1.4c-0.2-0.4-0.5-0.8-1-1.1
			c-0.4-0.3-0.9-0.5-1.5-0.7c-0.6-0.2-1.3-0.2-2-0.2h-2.8v7h2.9c1.6,0,2.8-0.3,3.6-0.9S155.5,33.2,155.5,31.9z"/>
		<path class="st4" d="M177.6,37.9h-3l-1.4-4.5h-8.5l-1.4,4.5h-2.9l6.8-20.4h3.8L177.6,37.9z M172.4,31l-3.5-10.9L165.5,31H172.4z"
			/>
		<path class="st4" d="M193.7,37.9h-2.8v-9.4h-8.6v9.4h-2.8V17.5h2.8v8.6h8.6v-8.6h2.8V37.9z"/>
		<path class="st4" d="M200,17.5v15.4l8.5-15.4h2.6v20.4h-2.8V22.5l-8.4,15.4h-2.7V17.5H200z"/>
		<path class="st4" d="M227.7,37.9h-11.6V17.5h11.6v2.3h-8.8v6.3h8.5v2.3h-8.5v7h8.8V37.9z"/>
	</g>
</g>
<g id="Слой_2">
	
		<rect x="29.6" y="110.6" transform="matrix(0.8891 -0.4577 0.4577 0.8891 -40.991 63.5307)" class="st5" width="162" height="11.5"/>
	<path class="st5" d="M35.5,150h177.8v30.8c0,17.9-14.6,32.5-32.5,32.5H68c-17.9,0-32.5-14.6-32.5-32.5V150z"/>
	<circle class="st6" cx="124" cy="150" r="88.9"/>
</g>
<g id="Слой_3">
	<circle class="st5" cx="66.5" cy="181.6" r="4.5"/>
	<line class="st7" x1="211" y1="144.5" x2="87" y2="144.5"/>
</g>
</svg>
