<?xml version="1.0" encoding="utf-8"?>
<!-- Generator: Adobe Illustrator 21.1.0, SVG Export Plug-In . SVG Version: 6.00 Build 0)  -->
<svg version="1.1" xmlns="http://www.w3.org/2000/svg" xmlns:xlink="http://www.w3.org/1999/xlink" x="0px" y="0px"
	 viewBox="0 0 250 250" style="enable-background:new 0 0 250 250;" xml:space="preserve">
<style type="text/css">
	.st0{display:none;fill:#FFFFFF;stroke:#041B88;stroke-width:2;stroke-miterlimit:10;}
	.st1{fill:none;}
	.st2{fill:#041B88;}
	.st3{font-family:'Consolas';}
	.st4{font-size:32px;}
	.st5{fill:#FFFFFF;stroke:#041B88;stroke-width:4;stroke-miterlimit:10;}
	.st6{opacity:0.3;fill:none;stroke:#041B88;stroke-width:2;stroke-miterlimit:10;}
	.st7{display:none;}
	.st8{display:inline;opacity:0.3;fill:none;stroke:#041B88;stroke-width:2;stroke-miterlimit:10;}
	.st9{display:none;opacity:0.3;fill:none;stroke:#041B88;stroke-width:2;stroke-miterlimit:10;}
	.st10{opacity:0.3;fill:none;stroke:#041B88;stroke-width:2;stroke-linecap:round;stroke-linejoin:round;stroke-miterlimit:10;}
</style>
<g id="Слой_1">
	<line class="st0" x1="0" y1="0" x2="250" y2="250"/>
	<line class="st0" x1="0" y1="250" x2="250" y2="0"/>
	<rect y="15.9" class="st1" width="250" height="25"/>
	<text transform="matrix(1 0 0 1 10.6403 37.9327)" class="st2 st3 st4">ЛАМИНИРОВАНИЕ</text>
</g>
<g id="Слой_2">
	<path class="st5" d="M212.1,154.3H39.8v33h172.3c5.9,0,10.6-7.4,10.6-16.5C222.7,161.6,217.9,154.3,212.1,154.3z"/>
	<ellipse class="st5" cx="37.9" cy="170.8" rx="10.6" ry="16.5"/>
	<ellipse class="st5" cx="37.9" cy="170.8" rx="3.2" ry="5"/>
	<path class="st5" d="M85.3,223.5h86.1c2.8,0,5-2.2,5-5V80.7c0-2.8-2.2-5-5-5H85.3c-2.8,0-5,2.2-5,5v137.8
		C80.3,221.3,82.6,223.5,85.3,223.5z"/>
	<line class="st5" x1="159.4" y1="137.3" x2="98" y2="137.3"/>
	<line class="st5" x1="159.4" y1="107.2" x2="98" y2="107.2"/>
	<line class="st5" x1="159.4" y1="167.5" x2="98" y2="167.5"/>
	<line class="st5" x1="159.4" y1="167.5" x2="98" y2="167.5"/>
	<line class="st5" x1="159.4" y1="197.7" x2="98" y2="197.7"/>
	<path class="st6" d="M72.6,153.1h112.3c1.3,0,2.3-1,2.3-2.3V67.7c0-1.3-1-2.3-2.3-2.3H72.6c-1.3,0-2.3,1-2.3,2.3v83.1
		C70.2,152,71.3,153.1,72.6,153.1z"/>
	<g class="st7">
		<path class="st8" d="M63.1,230.5c37.4,0,74.8,0,112.1,0c1.3,0,2.4-1,2.4-2.3c1.7-26.4,7.7-52.1,9.4-78.5c0-1.3-1-2.3-2.4-2.3
			c-37.4,0-74.8,0-112.1,0c-1.3,0-2.4,1-2.4,2.3c-1.7,26.4-7.7,52.1-9.4,78.5C60.7,229.5,61.8,230.5,63.1,230.5z"/>
	</g>
	<g class="st7">
		<path class="st8" d="M82.1,235.2c37.4,0,74.9,0,112.3,0c1.3,0,2.3-1,2.3-2.3c-1.6-27.9-7.8-55.2-9.4-83.1c0-1.3-1.1-2.3-2.4-2.3
			c-37.4,0-74.9,0-112.3,0c-1.3,0-2.3,1-2.3,2.3c1.6,27.9,7.8,55.2,9.4,83.1C79.7,234.2,80.8,235.2,82.1,235.2z"/>
	</g>
	<path class="st6" d="M72.2,152.6h112.3c1.3,0,2.3-1,2.3-2.3V67.2c0-1.3-1-2.3-2.3-2.3H72.2c-1.3,0-2.3,1-2.3,2.3v83.1
		C69.9,151.6,70.9,152.6,72.2,152.6z"/>
	<g class="st7">
		<path class="st8" d="M78.7,228.9c37.9,1.3,75.7,2.6,113.6,4c1.3,0,2.4-1,2.4-2.3c-1.6-27.7-6.9-54.9-8.5-82.6
			c0-1.3-1.1-2.3-2.4-2.3c-36.9,1.3-73.8,2.6-110.7,3.9c-1.3,0-2.4,1.1-2.4,2.2c0.9,25,4.8,49.8,5.7,74.8
			C76.3,227.8,77.4,228.8,78.7,228.9z"/>
	</g>
	<g class="st7">
		<path class="st8" d="M58.4,231.6c38.9,2.6,77.8,5.2,116.8,7.8c1.3,0.1,2.4-1,2.3-2.4c0.4-30.4,7.1-60,7.4-90.4
			c0-1.4-1.1-2.5-2.3-2.4c-35.9,2.4-71.9,4.7-107.8,7.1c-1.2,0.1-2.3,1.1-2.4,2.3c-3.8,25.6-12.4,50.1-16.2,75.7
			C56.1,230.5,57.1,231.5,58.4,231.6z"/>
	</g>
	<g class="st7">
		<path class="st8" d="M79.9,228.2c37.8,1.2,75.6,2.5,113.3,3.7c1.4,0,2.5-0.9,2.4-2.2c-1.7-25.7-6.8-51-8.5-76.7
			c0-1.3-1.2-2.3-2.5-2.2c-36.8,1.2-73.7,2.4-110.5,3.6c-1.4,0-2.5,1-2.5,2.2c1,23.3,4.7,46.3,5.7,69.6
			C77.4,227.2,78.5,228.2,79.9,228.2z"/>
	</g>
	<g class="st7">
		<path class="st8" d="M59.4,235.4c38.9,2.7,77.9,5.3,116.8,8c1.3,0.1,2.3-1,2.3-2.4c0.4-31,7.1-61.3,7.4-92.4
			c0-1.4-1.1-2.5-2.3-2.4c-36,2.4-71.9,4.8-107.9,7.2c-1.2,0.1-2.3,1.1-2.4,2.3c-3.8,26.2-12.4,51.2-16.2,77.3
			C57,234.3,58,235.3,59.4,235.4z"/>
	</g>
	<path class="st9" d="M72.2,238.2h112.3c1.3,0,2.3-1,2.3-2.3v-83.1c0-1.3-1-2.3-2.3-2.3H72.2c-1.3,0-2.3,1-2.3,2.3v83.1
		C69.9,237.2,70.9,238.2,72.2,238.2z"/>
	<path class="st9" d="M72.2,233.2h112.3c1.3,0,2.3-1,2.3-2.3v-83.1c0-1.3-1-2.3-2.3-2.3H72.2c-1.3,0-2.3,1-2.3,2.3v83.1
		C69.9,232.2,70.9,233.2,72.2,233.2z"/>
	<path class="st10" d="M186.8,181.4c0,0-1.1,58.7,34.4,58.7h-117c-35.5,0-34.4-58.7-34.4-58.7l0.1-31.8h117L186.8,181.4z"/>
	<path class="st10" d="M70.2,173.9c0,0,1.1,58.7-34.4,58.7h117c35.5,0,34.4-58.7,34.4-58.7l-0.1-31.8h-117L70.2,173.9z"/>
</g>
<g id="Слой_4">
</g>
<g id="Слой_3">
	<path class="st5" d="M213.1,120.1H40.8v33h172.3c5.9,0,10.6-7.4,10.6-16.5C223.7,127.5,218.9,120.1,213.1,120.1z"/>
	<ellipse class="st5" cx="38.9" cy="136.6" rx="10.6" ry="16.5"/>
	<ellipse class="st5" cx="38.9" cy="136.6" rx="3.2" ry="5"/>
</g>
</svg>
