<?xml version="1.0" encoding="utf-8"?>
<!-- Generator: Adobe Illustrator 21.1.0, SVG Export Plug-In . SVG Version: 6.00 Build 0)  -->
<svg version="1.1" xmlns="http://www.w3.org/2000/svg" xmlns:xlink="http://www.w3.org/1999/xlink" x="0px" y="0px"
	 viewBox="0 0 250 250" style="enable-background:new 0 0 250 250;" xml:space="preserve">
<style type="text/css">
	.st0{display:none;fill:#FFFFFF;stroke:#041B88;stroke-width:2;stroke-miterlimit:10;}
	.st1{fill:none;}
	.st2{fill:#FF8400;}
	.st3{font-family: 'consolas', sans-serif;}
	.st4{font-size:32px;}
	.st5{fill:#FFFFFF;stroke:#FF8400;stroke-width:4;stroke-miterlimit:10;}
</style>
<g id="Слой_1">
	<line class="st0" x1="0" y1="0" x2="250" y2="250"/>
	<line class="st0" x1="0" y1="250" x2="250" y2="0"/>
	<rect y="15.9" class="st1" width="250" height="25"/>
	<text transform="matrix(1 0 0 1 10.6403 37.9327)" class="st2 st3 st4">ТИРАЖИРОВАНИЕ</text>
</g>
<g id="Слой_2">
	<path class="st5" d="M56.1,223.6h60.4c2.8,0,5-2.2,5-5v-98.3c0-2.8-2.2-5-5-5H56.1c-2.8,0-5,2.2-5,5v98.3
		C51.1,221.4,53.4,223.6,56.1,223.6z"/>
	<path class="st5" d="M47.6,231.4h60.4c2.8,0,5-2.2,5-5v-98.3c0-2.8-2.2-5-5-5H47.6c-2.8,0-5,2.2-5,5v98.3
		C42.6,229.1,44.9,231.4,47.6,231.4z"/>
	<line class="st5" x1="43.8" y1="124.8" x2="53.1" y2="116.3"/>
	<line class="st5" x1="111.3" y1="124.8" x2="120.6" y2="116.3"/>
	<line class="st5" x1="111.4" y1="230" x2="120.7" y2="221.5"/>
	<line class="st5" x1="100.7" y1="177.2" x2="52.4" y2="177.2"/>
	<line class="st5" x1="100.7" y1="153.5" x2="52.4" y2="153.5"/>
	<line class="st5" x1="100.7" y1="200.9" x2="52.4" y2="200.9"/>
	<path class="st5" d="M143.4,163.5h60.4c2.8,0,5-2.2,5-5V60.2c0-2.8-2.2-5-5-5h-60.4c-2.8,0-5,2.2-5,5v98.3
		C138.4,161.2,140.6,163.5,143.4,163.5z"/>
	<path class="st5" d="M134.9,171.2h60.4c2.8,0,5-2.2,5-5V67.9c0-2.8-2.2-5-5-5h-60.4c-2.8,0-5,2.2-5,5v98.3
		C129.9,169,132.1,171.2,134.9,171.2z"/>
	<line class="st5" x1="131.1" y1="64.7" x2="140.4" y2="56.2"/>
	<line class="st5" x1="198.5" y1="64.7" x2="207.8" y2="56.2"/>
	<line class="st5" x1="198.7" y1="169.9" x2="208" y2="161.4"/>
	<line class="st5" x1="188" y1="117.1" x2="139.6" y2="117.1"/>
	<line class="st5" x1="188" y1="93.4" x2="139.6" y2="93.4"/>
	<line class="st5" x1="188" y1="140.8" x2="139.6" y2="140.8"/>
	<path class="st5" d="M99.9,193.5h60.4c2.8,0,5-2.2,5-5V90.2c0-2.8-2.2-5-5-5H99.9c-2.8,0-5,2.2-5,5v98.3
		C94.9,191.3,97.1,193.5,99.9,193.5z"/>
	<path class="st5" d="M91.3,201.2h60.4c2.8,0,5-2.2,5-5V97.9c0-2.8-2.2-5-5-5H91.3c-2.8,0-5,2.2-5,5v98.3
		C86.3,199,88.6,201.2,91.3,201.2z"/>
	<line class="st5" x1="87.6" y1="94.7" x2="96.9" y2="86.2"/>
	<line class="st5" x1="155" y1="94.7" x2="164.3" y2="86.2"/>
	<line class="st5" x1="155.1" y1="199.9" x2="164.4" y2="191.4"/>
	<line class="st5" x1="144.4" y1="147.1" x2="96.1" y2="147.1"/>
	<line class="st5" x1="144.4" y1="123.4" x2="96.1" y2="123.4"/>
	<line class="st5" x1="144.4" y1="170.8" x2="96.1" y2="170.8"/>
	<path class="st5" d="M55.9,223.6h60.4c2.8,0,5-2.2,5-5v-98.3c0-2.8-2.2-5-5-5H55.9c-2.8,0-5,2.2-5,5v98.3
		C50.9,221.4,53.1,223.6,55.9,223.6z"/>
	<path class="st5" d="M47.4,231.4h60.4c2.8,0,5-2.2,5-5v-98.3c0-2.8-2.2-5-5-5H47.4c-2.8,0-5,2.2-5,5v98.3
		C42.4,229.1,44.6,231.4,47.4,231.4z"/>
	<line class="st5" x1="43.6" y1="124.8" x2="52.9" y2="116.3"/>
	<line class="st5" x1="111" y1="124.8" x2="120.3" y2="116.3"/>
	<line class="st5" x1="111.2" y1="230" x2="120.5" y2="221.6"/>
	<line class="st5" x1="100.5" y1="177.2" x2="52.1" y2="177.2"/>
	<line class="st5" x1="100.5" y1="153.5" x2="52.1" y2="153.5"/>
	<line class="st5" x1="100.5" y1="200.9" x2="52.1" y2="200.9"/>
</g>
</svg>
