<?xml version="1.0" encoding="utf-8"?>
<!-- Generator: Adobe Illustrator 21.1.0, SVG Export Plug-In . SVG Version: 6.00 Build 0)  -->
<svg version="1.1" id="Слой_1" xmlns="http://www.w3.org/2000/svg" xmlns:xlink="http://www.w3.org/1999/xlink" x="0px" y="0px"
	 viewBox="0 0 250 250" style="enable-background:new 0 0 250 250;" xml:space="preserve">
<style type="text/css">
	.st0{fill:#FFFFFF;stroke:#FF8400;stroke-width:4;stroke-miterlimit:10;}
	.st1{display:none;fill:#FFFFFF;stroke:#041B88;stroke-width:2;stroke-miterlimit:10;}
	.st2{fill:none;}
	.st3{fill:#FF8400;}
	.st4{font-family: 'consolas', sans-serif;}
	.st5{font-size:32px;}
</style>
<path class="st0" d="M110.3,171.1H49.9c-2.8,0-5-2.2-5-5V67.8c0-2.8,2.2-5,5-5h60.4c2.8,0,5,2.2,5,5v98.3
	C115.3,168.9,113.1,171.1,110.3,171.1z"/>
<line class="st0" x1="100.5" y1="107" x2="59.7" y2="107"/>
<line class="st0" x1="100.5" y1="87" x2="59.7" y2="87"/>
<line class="st0" x1="100.5" y1="126.9" x2="59.7" y2="126.9"/>
<line class="st0" x1="100.5" y1="146.9" x2="59.7" y2="146.9"/>
<path class="st0" d="M154.1,201.2H93.7c-2.8,0-5-2.2-5-5V97.9c0-2.8,2.2-5,5-5h60.4c2.8,0,5,2.2,5,5v98.3
	C159.1,199,156.9,201.2,154.1,201.2z"/>
<line class="st1" x1="0" y1="0" x2="250" y2="250"/>
<line class="st1" x1="0" y1="250" x2="250" y2="0"/>
<rect y="15.9" class="st2" width="250" height="25"/>
<text transform="matrix(1 0 0 1 28.234 37.9327)" class="st3 st4 st5">КОПИРОВАНИЕ</text>
<path class="st0" d="M173.7,85.5"/>
<path class="st0" d="M173.7,112.7"/>
<line class="st0" x1="144.3" y1="137.1" x2="103.6" y2="137.1"/>
<line class="st0" x1="144.3" y1="117.1" x2="103.6" y2="117.1"/>
<line class="st0" x1="144.3" y1="157.1" x2="103.6" y2="157.1"/>
<line class="st0" x1="144.3" y1="177" x2="103.6" y2="177"/>
<path class="st0" d="M198,231.4h-60.4c-2.8,0-5-2.2-5-5v-98.3c0-2.8,2.2-5,5-5H198c2.8,0,5,2.2,5,5v98.3
	C203,229.1,200.7,231.4,198,231.4z"/>
<path class="st0" d="M217.5,112.7"/>
<path class="st0" d="M217.5,139.8"/>
<line class="st0" x1="188.1" y1="167.1" x2="147.4" y2="167.1"/>
<line class="st0" x1="188.1" y1="147.1" x2="147.4" y2="147.1"/>
<line class="st0" x1="188.1" y1="187.1" x2="147.4" y2="187.1"/>
<line class="st0" x1="188.1" y1="207.1" x2="147.4" y2="207.1"/>
</svg>
