<?xml version="1.0" encoding="utf-8"?>
<!-- Generator: Adobe Illustrator 21.1.0, SVG Export Plug-In . SVG Version: 6.00 Build 0)  -->
<svg version="1.1" id="Слой_1" xmlns="http://www.w3.org/2000/svg" xmlns:xlink="http://www.w3.org/1999/xlink" x="0px" y="0px"
	 viewBox="0 0 566.9 283.5" style="enable-background:new 0 0 566.9 283.5;" xml:space="preserve">
<style type="text/css">
	.st0{fill:#1D4999;stroke:#1D4999;stroke-miterlimit:10;}
	.st1{fill:#FFFFFF;stroke:#1D4999;stroke-miterlimit:10;}
	.st2{fill:#1F90CF;stroke:#1F90CF;stroke-miterlimit:10;}
	.st3{fill:#FFFFFF;stroke:#224496;stroke-width:0.1;stroke-miterlimit:10;}
	.st4{fill:#2290CF;}
	.st5{fill:none;}
	.st6{fill:#1F90CF;}
	.st7{font-family:'Georgia';}
	.st8{font-size:57.2402px;}
</style>
<path class="st0" d="M350.1,197.8H83.8v-76.2c0-20.4,16.5-36.9,36.9-36.9h192.6c20.4,0,36.9,16.5,36.9,36.9V197.8z"/>
<rect x="156.4" y="17.3" class="st1" width="121.2" height="67.4"/>
<rect x="156.4" y="155.8" class="st1" width="121.2" height="121.2"/>
<path class="st2" d="M192.9,254.6l2.6-6.9l-13-6.6l2.5-2.9c0.4-0.5,1.1-0.8,1.8-0.7l13.6,1.8l14.2-18.6l-12.6-7.2
	c-0.2-0.1-0.3-0.2-0.5-0.2l-26.8-9.5l2.3-2.7c0.6-0.7,1.6-1.1,2.5-1l47.7,4.3l17.1-18.6c0.4-0.5,0.9-0.9,1.4-1.2l5.8-4.4
	c0.2-0.2,0.5-0.3,0.8-0.5l2.6-1.3c0.4-0.2,0.8-0.3,1.2-0.4l0,0c0.6-0.1,1.1-0.1,1.7,0l0.2,0.1c0.2,0,0.4,0.2,0.4,0.4l0.1,0.2
	c0.2,0.5,0.3,1.1,0.3,1.7l0,0c0,0.4-0.1,0.9-0.2,1.3l-0.8,2.7c-0.1,0.3-0.2,0.6-0.4,0.9l-3.4,6.5c-0.3,0.5-0.6,1.1-1,1.5L237.3,213
	l11.6,46.4c0.2,0.9,0,1.9-0.6,2.6l-2.3,2.7l-13.6-25c-0.1-0.2-0.2-0.3-0.3-0.4l-9-11.3l-16.2,16.9l3.9,13.2c0.2,0.6,0,1.3-0.4,1.9
	l-2.5,2.9l-8.5-11.8L192.9,254.6z"/>
<circle class="st3" cx="305.2" cy="111.8" r="6.7"/>
<ellipse transform="matrix(0.9264 -0.3765 0.3765 0.9264 -20.9419 116.5568)" class="st3" cx="287.7" cy="111.8" rx="3.3" ry="3.3"/>
<line class="st4" x1="287.7" y1="236.4" x2="580.8" y2="236.4"/>
<rect x="305.3" y="84.7" class="st5" width="250.7" height="113"/>
<text transform="matrix(1 0 0 1 380.9962 127.8643)"><tspan x="0" y="0" class="st6 st7 st8">МЦ </tspan><tspan x="-19.5" y="68.7" class="st6 st7 st8">МАИ</tspan></text>
</svg>
