<?xml version="1.0" encoding="utf-8"?>
<!-- Generator: Adobe Illustrator 21.1.0, SVG Export Plug-In . SVG Version: 6.00 Build 0)  -->
<svg version="1.1" id="Слой_1" xmlns="http://www.w3.org/2000/svg" xmlns:xlink="http://www.w3.org/1999/xlink" x="0px" y="0px"
	 viewBox="0 0 283.5 283.5" style="enable-background:new 0 0 283.5 283.5;" xml:space="preserve">
<style type="text/css">
	.st0{display:none;fill-rule:evenodd;clip-rule:evenodd;fill:#FFFFFF;}
	.st1{fill-rule:evenodd;clip-rule:evenodd;fill:#008BD2;}
	.st2{fill-rule:evenodd;clip-rule:evenodd;fill:#FFFFFF;}
</style>
<g>
	<polygon class="st0" points="0,0 283.5,0 283.5,283.5 0,283.5 0,0 	"/>
	<path class="st1" d="M189.8,27.3c53.1,0,80.8,39.7,68.2,97.4c-13.8,63.1-59.4,108-115.5,131.5C71.7,226.8,30.9,168.4,23.4,89.5
		c31.3-5.2,55.9-27.2,54.2-62.2H189.8L189.8,27.3z"/>
	<path class="st2" d="M249.6,122.8c-11.9,55.8-52.2,100.4-107,124C78.1,219.2,41,164.5,32.9,96C61.7,88.7,84,67,86,35.7h104.2
		C241.2,35.5,260.2,75.6,249.6,122.8L249.6,122.8z"/>
	<path class="st1" d="M242.2,121.2c-11.8,54.2-49.7,94.7-99.6,117.4c-56.7-25.2-92.1-74.1-101.4-137.1c26.7-9.1,47-29.7,51.6-58.1
		h97.4C236.3,43.2,251.4,78.9,242.2,121.2L242.2,121.2z"/>
	<path class="st1" d="M275.3,116.4l-156.9,9c-4.1,5.1-11.7,15.2-18.1,16.6c-3.4,0.7-6.8-1.6-7.5-5.1c-1-4.7,2.9-9.4,5.4-13
		l-90.3-7.3c-5.1-0.4-4.8-8.2,0.1-8.2h101.3l30.1-33.6l-11.3-4.1c-3-1.1-2.8-5.4,0.6-5.4h13.8l4.3-14.4c0.8-2.8,4.8-2.5,5.1,0.4
		l1.4,14.1h12.9c3.3,0,3.5,4.3,0.2,5.4l-14.8,5.1l-22,32.6h145.7C280.6,108.4,280.7,116.1,275.3,116.4L275.3,116.4z"/>
	<path class="st2" d="M275.2,114.7c3.2-0.2,3.2-4.6,0-4.6H150.7l3,11.5L275.2,114.7L275.2,114.7z M141.7,110.1h-15.5l24.2-35.8
		l15.4-5.3c2-0.7,1.4-2.1,0.4-2.1h-14.4l-1.6-15.7c-0.1-0.8-1.4-1.2-1.7-0.1L143.7,67h-15.1c-1.3,0-1.5,1.5,0,2.1l13.7,5l-32.3,36.1
		H8c-2.7,0-3.1,4.5,0,4.7l93.1,7.5c-2,3.6-5.4,7.1-6.5,11.2c-1.2,4.2,2.1,7.5,5.4,6.7c5.3-1.2,14.1-12.2,17.6-16.6l20.3-1.2
		L141.7,110.1L141.7,110.1z"/>
	<path class="st2" d="M148.6,163.6l-5.7-27.9l-6.7,27.9H148.6L148.6,163.6z M182.9,172.4l13.1-16v-0.6c0-1.8-1-3.4-4.2-3.4v-3.8
		h16.2v3.8c-4,0-4.1,1.6-4.1,5.6v18.6c0,4.1,0.3,5.6,4.1,5.6v3.7h-16.2V182c3.7,0,4.2-1.3,4.2-5.6V162l-13.1,16.1v0.7
		c0,2.2,1.2,3.2,4.2,3.2v3.7h-40.3V182c2.9,0,4.8-0.2,4.8-3.1c0-1.8-0.8-6.2-2-11.1H135l-1.9,7.4c-1.3,4.9-0.9,6.8,4.3,6.8v3.7
		h-33.7V182c4,0,4.4-1.3,4.4-5.6v-17.3L98,184.5l-10.3-26.1v18.5c0,3.6,0.4,5.2,4.3,5.2v3.7H79.6V182c4.2,0,4.4-2.6,4.4-6.1v-18
		c0-3.2,0-5.6-4.1-5.6v-3.8h13.2l7.2,19.1l7.2-19.1h12.8v3.8c-4,0-4.1,1.6-4.1,5.6v18.6c0,3.6,0.3,4.7,1.4,5c2.4,0.9,7,0.7,8.3-2
		c0.9-1.7,1.9-4.4,2.9-8.2l17.2-67.7l15.6,66.5c1.7,7.2,2.7,9,4.2,10.6c1.6,1.3,6.7,2.3,8.4,0.3c0.4-0.4,0.7-1.2,0.7-4.4v-18.6
		c0-4.2-0.3-5.6-4.2-5.6v-3.8h16.3v3.8c-4,0-4.2,1.7-4.2,5.6V172.4L182.9,172.4z"/>
</g>
</svg>
