<?xml version="1.0" encoding="utf-8"?>
<!-- Generator: Adobe Illustrator 21.1.0, SVG Export Plug-In . SVG Version: 6.00 Build 0)  -->
<svg version="1.1" id="Слой_1" xmlns="http://www.w3.org/2000/svg" xmlns:xlink="http://www.w3.org/1999/xlink" x="0px" y="0px"
	 viewBox="0 0 350 200" style="enable-background:new 0 0 350 200;" xml:space="preserve">
<style type="text/css">
	.st0{fill:#041B88;stroke:#041B88;stroke-miterlimit:10;}
	.st1{fill:#FFFFFF;stroke:#041B88;stroke-miterlimit:10;}
	.st2{fill:#008BD2;stroke:#008BD2;stroke-miterlimit:10;}
	.st3{fill:#FFFFFF;stroke:#224495;stroke-width:0.1;stroke-miterlimit:10;}
	.st4{fill:#218FCE;}
	.st5{fill:#041B88;}
	.st6{fill:#008BD2;}
</style>
<path class="st0" d="M199.5,136.9H46.1c-9.1,0-16.4-7.3-16.4-16.4v-9.4c0-29.4,23.8-53.2,53.2-53.2h79.6c29.4,0,53.2,23.8,53.2,53.2
	v9.4C215.9,129.6,208.5,136.9,199.5,136.9z"/>
<path class="st1" d="M156.3,10.8H88.9c-4.7,0-8.5,3.8-8.5,8.5v38.6h84.7V19.7C165.2,14.8,161.2,10.8,156.3,10.8z"/>
<path class="st1" d="M165.2,107.6H80.4v76.2c0,4.7,3.8,8.5,8.5,8.5h67.7c4.7,0,8.5-3.8,8.5-8.5V107.6z"/>
<path class="st2" d="M106,176.7l1.8-4.8l-9.1-4.6l1.8-2.1c0.3-0.4,0.8-0.5,1.2-0.5l9.5,1.3l9.9-13l-8.8-5c-0.1-0.1-0.2-0.1-0.3-0.2
	l-18.7-6.7l1.6-1.9c0.4-0.5,1.1-0.8,1.8-0.7l33.3,3l11.9-13c0.3-0.3,0.6-0.6,1-0.9l4.1-3c0.2-0.1,0.4-0.2,0.5-0.3l1.8-0.9
	c0.3-0.1,0.6-0.2,0.9-0.3l0,0c0.4-0.1,0.8-0.1,1.2,0l0.2,0c0.1,0,0.2,0.1,0.3,0.3l0.1,0.2c0.2,0.4,0.2,0.8,0.2,1.2l0,0
	c0,0.3-0.1,0.6-0.2,0.9l-0.6,1.9c-0.1,0.2-0.1,0.4-0.2,0.6l-2.4,4.6c-0.2,0.4-0.4,0.7-0.7,1.1L137,147.5l8.1,32.5
	c0.2,0.7,0,1.3-0.4,1.9l-1.6,1.9l-9.5-17.5c-0.1-0.1-0.1-0.2-0.2-0.3L127,158l-11.3,11.8l2.7,9.2c0.1,0.4,0,0.9-0.3,1.3l-1.8,2.1
	l-5.9-8.3L106,176.7z"/>
<circle class="st3" cx="184.5" cy="76.9" r="4.7"/>
<ellipse transform="matrix(0.9264 -0.3765 0.3765 0.9264 -16.2701 70.5042)" class="st3" cx="172.2" cy="76.9" rx="2.3" ry="2.3"/>
<line class="st4" x1="172.2" y1="163.9" x2="377.1" y2="163.9"/>
<g>
	<path class="st5" d="M244.2,60.5v-2.7h6.2l8.5,17.5l8.4-17.5h6.2v2.7h-2.5v24.6h2.5v2.7H265v-2.7h2.6V64.5l-7.6,15.6h-2.5L250,64.4
		v20.7h2.6v2.7h-8.4v-2.7h2.5V60.5H244.2z"/>
	<path class="st5" d="M297.8,85.1h3.2v8.7h-3.2v-6H278v-2.7h2.5V60.5H278v-2.7h8.2v2.7h-2.4v24.6h10.7V60.5h-2.4v-2.7h8.2v2.7h-2.5
		V85.1z"/>
	<path class="st6" d="M231.4,108.5v-2.7h6.2l8.5,17.5l8.4-17.5h6.2v2.7h-2.5v24.6h2.5v2.7h-8.4v-2.7h2.6v-20.6l-7.6,15.6h-2.5
		l-7.5-15.7v20.7h2.6v2.7h-8.4v-2.7h2.5v-24.6H231.4z"/>
	<path class="st6" d="M287.8,133.1v2.7H280v-2.7h2.2l-2-8h-8.4l-2,8h2.2v2.7h-7.8v-2.7h2.5l7-27.3h4.7l6.8,27.3H287.8z M279.5,122.6
		l-3.6-14.1l-3.6,14.1H279.5z"/>
	<path class="st6" d="M310.8,133.1h2.6v2.7h-5.9v-22.2l-12,22.2h-4.7v-2.7h2.6v-24.6h-2.6v-2.7h5.8v22l11.9-22h4.9v2.7h-2.6V133.1z"
		/>
</g>
</svg>
