<?xml version="1.0" encoding="utf-8"?>
<!-- Generator: Adobe Illustrator 21.1.0, SVG Export Plug-In . SVG Version: 6.00 Build 0)  -->
<svg version="1.1" xmlns="http://www.w3.org/2000/svg" xmlns:xlink="http://www.w3.org/1999/xlink" x="0px" y="0px"
	 viewBox="0 0 566.9 566.9" style="enable-background:new 0 0 566.9 566.9;" xml:space="preserve">
<style type="text/css">
	.st0{fill:#D6DAED;stroke:#263471;stroke-miterlimit:10;}
	.st1{fill:#FFFFFF;stroke:#283372;stroke-miterlimit:10;}
	.st2{fill:#1F90CF;stroke:#1F90CF;stroke-miterlimit:10;}
	.st3{fill:#FFFFFF;stroke:#224496;stroke-width:0.1;stroke-miterlimit:10;}
	.st4{fill:none;}
	.st5{display:none;}
	.st6{display:inline;fill:#2290CF;}
	.st7{font-family:'Georgia';}
	.st8{font-size:60px;}
	.st9{fill:#2290CF;}
	.st10{font-size:40px;}
</style>
<g id="Слой_1">
	<path class="st0" d="M242.2,212.3H56v-42.1c0-20.4,16.5-36.9,36.9-36.9h112.4c20.4,0,36.9,16.5,36.9,36.9V212.3z"/>
	<rect x="106.7" y="86.2" class="st1" width="84.7" height="47.1"/>
	<rect x="106.7" y="183" class="st1" width="84.7" height="84.7"/>
	<path class="st2" d="M149.1,260.5l-1.8-4.8l-9.9,2.4v-2.7c0-0.5,0.2-0.9,0.6-1.2l8.1-5.2l-0.9-16.3l-9.9,1.9
		c-0.1,0-0.2,0.1-0.4,0.1l-18.6,7.1v-2.5c0-0.7,0.3-1.3,0.9-1.7l27.2-19.4l0.6-17.6c0-0.4,0.1-0.9,0.2-1.3l1.1-5
		c0-0.2,0.1-0.4,0.2-0.6l0.8-1.8c0.1-0.3,0.3-0.5,0.5-0.8v0c0.2-0.3,0.6-0.6,0.9-0.7l0.2-0.1c0.1-0.1,0.3-0.1,0.4,0l0.2,0.1
		c0.4,0.2,0.7,0.4,0.9,0.7v0c0.2,0.2,0.3,0.5,0.5,0.8l0.8,1.8c0.1,0.2,0.2,0.4,0.2,0.6l1.1,5c0.1,0.4,0.2,0.9,0.2,1.3l0.6,17.5
		l27.2,19.4c0.5,0.4,0.9,1,0.9,1.7v2.5l-18.6-7.1c-0.1,0-0.2-0.1-0.4-0.1l-9.9-1.9L152,249l8.1,5.2c0.4,0.3,0.6,0.7,0.6,1.2v2.7
		l-9.9-2.4L149.1,260.5z"/>
	<circle class="st3" cx="210.8" cy="152.3" r="4.7"/>
	
		<ellipse transform="matrix(0.9264 -0.3765 0.3765 0.9264 -42.7288 85.9579)" class="st3" cx="198.5" cy="152.3" rx="2.3" ry="2.3"/>
	<g>
		<path class="st1" d="M226.3,359.1c-16.8-25.6-38.6-38.6-61.1-58.1c-16.3,19-33.3,53.5-58.7,61.7c16.8,25.6,38.6,38.6,61.1,58.1
			C183.9,401.7,200.9,367.2,226.3,359.1z"/>
		<path class="st2" d="M142.1,392.8c0.8-1.7,1.3-2.6,2.1-4.4c-3.5-1.4-5.3-2.1-8.8-3.8c0.7-0.7,1.1-1.1,1.9-1.8
			c0.3-0.3,0.8-0.5,1.3-0.5c3.8,0.3,5.7,0.6,9.4,0.1c4.3-5.9,6.4-9.2,10.6-15.8c-3.4-0.8-5.1-1.3-8.5-2.4c-0.1,0-0.2-0.1-0.3-0.1
			c-7.3-0.7-11-1.8-18.3-5.4c0.7-0.8,1-1.2,1.7-2c0.5-0.5,1.1-0.8,1.8-0.7c12.5,0.5,21-1.3,33.1-4.3c5.1-6.9,7.6-10.4,12.6-16.5
			c0.3-0.4,0.6-0.7,1-1.1c1.7-1.6,2.5-2.3,4.2-3.8c0.2-0.2,0.4-0.3,0.6-0.4c0.7-0.5,1.1-0.6,1.9-0.9c0.3-0.1,0.6-0.2,0.9-0.3l0,0
			c0.4-0.1,0.8-0.1,1.2,0c0.1,0,0.1,0,0.2,0c0.1,0,0.2,0.1,0.3,0.2c0,0.1,0,0.1,0.1,0.1c0.1,0.3,0.2,0.7,0.1,1l0,0
			c0,0.3-0.1,0.5-0.2,0.8c-0.3,0.7-0.4,1-0.7,1.7c-0.1,0.2-0.2,0.4-0.3,0.6c-1.1,1.7-1.6,2.6-2.7,4.4c-0.2,0.4-0.5,0.7-0.8,1.1
			c-4.7,6.2-7,9.6-11.7,16.7c2.2,10.7,4.2,21.4,6.2,32.1c0.1,0.7-0.1,1.5-0.5,2.1c-0.7,1-1,1.4-1.7,2.4c-3.4-7-5.1-10.2-8.5-16.2
			c-0.1-0.1-0.1-0.2-0.2-0.3c-2.3-2.5-3.5-3.6-5.9-6c-4.8,6.4-7.2,9.5-12,15.2c0.9,3.2,1.3,4.8,2.2,8c0.1,0.4,0,0.9-0.3,1.3
			c-0.7,0.9-1.1,1.4-1.9,2.3c-2.2-2.5-3.3-3.8-5.5-6.3C144.9,391.6,144,391.9,142.1,392.8z"/>
	</g>
	<g>
		<path class="st1" d="M364.9,411.3c-26.7-9.3-46.2-22.7-65.8-42.8c-19.6,20.1-39.1,33.5-65.8,42.8c19.3,24.6,40.8,46.6,65.8,65.4
			C323.9,458,345.8,435.9,364.9,411.3z"/>
		<path class="st2" d="M267.1,437.5c1.6-1.6,2.4-2.4,3.9-3.9c-3.9-2.4-5.8-3.5-9.5-5.9c1.1-0.5,1.7-0.8,2.8-1.3
			c0.5-0.2,1.1-0.3,1.6-0.1c4.3,1.2,6.5,1.7,10.8,2.8c6-3.9,8.7-5.9,13.7-10c-3.5-2.1-5.1-3.1-8.3-5.2c-0.1-0.1-0.2-0.1-0.3-0.2
			c-7.1-3.1-10.6-4.6-17.1-7.6c0.9-0.5,1.3-0.8,2.2-1.3c0.6-0.3,1.3-0.5,1.9-0.4c10.6,2.1,21.2,3.9,31.9,5.5
			c5.1-4.1,7.4-6.2,11.7-10.1c0.3-0.2,0.6-0.5,0.9-0.7c1.5-0.9,2.2-1.4,3.7-2.3c0.2-0.1,0.3-0.2,0.5-0.2c0.6-0.2,1-0.4,1.6-0.6
			c0.2-0.1,0.5-0.2,0.8-0.2l0,0c0.4,0,0.7,0,1.1,0.1c0.1,0,0.1,0,0.2,0c0.1,0,0.2,0.1,0.3,0.2c0,0.1,0,0.1,0.1,0.1
			c0.2,0.3,0.3,0.6,0.3,0.9l0,0c0,0.2,0,0.5-0.1,0.7c-0.2,0.6-0.3,0.9-0.4,1.5c0,0.2-0.1,0.3-0.2,0.5c-0.8,1.4-1.2,2.1-2,3.6
			c-0.2,0.3-0.4,0.6-0.6,0.9c-4,4.3-6,6.6-10.7,11.1c2.8,10.1,6.4,19.9,10,29.7c0.2,0.6,0.1,1.3-0.5,1.8c-0.9,0.8-1.3,1.2-2.2,1.9
			c-5.3-6.9-7.7-10.5-11.8-17.1c-0.1-0.1-0.1-0.2-0.2-0.3c-2.8-3-4.1-4.5-6.6-7.5c-5.6,3.8-8.6,5.7-15.1,9.3
			c0.5,3.5,0.7,5.3,1.3,9.1c0.1,0.5-0.2,0.9-0.7,1.2c-1.1,0.7-1.7,1-2.8,1.7c-2.3-3.7-3.4-5.5-5.4-8.9
			C271.1,436.7,269.8,437,267.1,437.5z"/>
	</g>
	<g>
		<path class="st1" d="M503,328.8c-26.2-6.1-49.9-15.8-74.3-26.8c-12.6,27-33.6,43.6-60,56.1c36.8,22.2,72,40.4,115.1,46.5
			C493.4,379.9,500.9,355.4,503,328.8z"/>
		<path class="st2" d="M441.7,357.6c-0.1-1.9-0.1-2.9-0.1-4.8c-4.8-0.3-7.1-0.5-11.9-0.9c0.5-0.9,0.8-1.4,1.2-2.3
			c0.2-0.4,0.7-0.7,1.2-0.8c4.3-0.8,6.5-1.2,10.6-2.1c1.9-5.7,2.7-8.5,4.2-13.9c-4-0.4-6-0.6-9.9-1c-0.1,0-0.2,0-0.4,0
			c-7.9,0.4-11.8,0.5-20,0.6c0.5-0.8,0.7-1.2,1.2-1.9c0.3-0.5,0.9-0.9,1.6-1.1c10.3-2.6,20.5-5.2,30.6-8.4c1.9-5.5,2.8-8.3,4.7-13.8
			c0.1-0.3,0.3-0.7,0.4-1c0.8-1.5,1.2-2.2,2.1-3.7c0.1-0.2,0.2-0.3,0.3-0.4c0.4-0.5,0.7-0.8,1.1-1.3c0.2-0.2,0.4-0.4,0.6-0.5l0,0
			c0.3-0.2,0.6-0.3,0.9-0.4c0.1,0,0.1,0,0.1,0c0.1,0,0.2,0,0.3,0.1c0,0,0.1,0.1,0.1,0.1c0.2,0.2,0.4,0.5,0.6,0.8l0,0
			c0.1,0.2,0.2,0.5,0.2,0.7c0.1,0.7,0.1,1,0.2,1.7c0,0.2,0,0.4,0,0.5c-0.1,1.7-0.1,2.6-0.2,4.2c0,0.4-0.1,0.7-0.1,1.1
			c-1.3,5.6-1.9,8.4-3.1,14c7.7,8.3,16.3,14.6,25.5,21.1c0.6,0.4,1,1,1,1.5c-0.1,0.8-0.1,1.2-0.1,2.1c-8.9-3.3-13-5.3-20.2-9.2
			c-0.1-0.1-0.2-0.1-0.4-0.2c-4-1.4-5.9-2.2-9.6-3.8c-1.9,5.3-3,8-5.4,13.6c2.9,2.6,4.4,3.9,7.6,6.5c0.4,0.3,0.6,0.8,0.4,1.2
			c-0.3,1-0.4,1.5-0.7,2.4c-4.5-1.8-6.6-2.7-10.8-4.6C444.1,355.3,443.3,356.1,441.7,357.6z"/>
	</g>
	<path class="st2" d="M463,260.5l-1.8-4.8l-9.9,2.4l0-2.7c0-0.5,0.2-0.9,0.6-1.2l8.1-5.2l-1-16.3l-9.9,1.9c-0.1,0-0.2,0.1-0.4,0.1
		l-18.6,7.2l0-2.5c0-0.7,0.3-1.3,0.9-1.7l27.2-19.5l0.6-17.6c0-0.4,0.1-0.9,0.2-1.3l1.1-5c0-0.2,0.1-0.4,0.2-0.6l0.8-1.8
		c0.1-0.3,0.3-0.5,0.5-0.8l0,0c0.2-0.3,0.6-0.6,0.9-0.7l0.2-0.1c0.1-0.1,0.3-0.1,0.4,0l0.2,0.1c0.4,0.2,0.7,0.4,0.9,0.7l0,0
		c0.2,0.2,0.3,0.5,0.5,0.8l0.8,1.8c0.1,0.2,0.2,0.4,0.2,0.6l1.1,5c0.1,0.4,0.2,0.9,0.2,1.3l0.6,17.5l27.3,19.3
		c0.5,0.4,0.9,1,0.9,1.7l0,2.5l-18.6-7.1c-0.1,0-0.2-0.1-0.4-0.1l-10-1.9l-0.9,16.3l8.1,5.2c0.4,0.3,0.6,0.7,0.6,1.2l0,2.7l-9.9-2.4
		L463,260.5z"/>
	<rect x="226" y="125.9" class="st4" width="146.8" height="126"/>
	<text transform="matrix(1 0 0 1 226.0417 171.237)" class="st5"><tspan x="0" y="0" class="st6 st7 st8"> МЦ </tspan><tspan x="0" y="72" class="st6 st7 st8">МАИ</tspan></text>
	<line class="st9" x1="198.5" y1="239.3" x2="403.4" y2="239.3"/>
	<rect x="210.8" y="133.3" class="st4" width="175.2" height="79"/>
	<text transform="matrix(1 0 0 1 263.7249 163.4725)"><tspan x="0" y="0" class="st9 st7 st10">МЦ </tspan><tspan x="-13.7" y="48" class="st9 st7 st10">МАИ</tspan></text>
</g>
<g id="Слой_2" class="st5">
</g>
</svg>
