<?xml version="1.0" encoding="utf-8"?>
<!-- Generator: Adobe Illustrator 21.1.0, SVG Export Plug-In . SVG Version: 6.00 Build 0)  -->
<svg version="1.1" id="Слой_1" xmlns="http://www.w3.org/2000/svg" xmlns:xlink="http://www.w3.org/1999/xlink" x="0px" y="0px"
	 viewBox="0 0 283.5 283.5" style="enable-background:new 0 0 283.5 283.5;" xml:space="preserve">
<style type="text/css">
	.st0{fill:none;}
	.st1{fill:none;stroke:#000000;stroke-width:0.5;}
	.st2{fill:#EDEFF7;}
	.st3{opacity:0.44;fill:url(#Burlap);}
	.st4{fill:#2D2E83;}
</style>
<pattern  width="72" height="72" patternUnits="userSpaceOnUse" id="Burlap" viewBox="12.8 -83 72 72" style="overflow:visible;">
	<g>
		<rect x="12.8" y="-83" class="st0" width="72" height="72"/>
		<g>
			<line class="st1" x1="83.2" y1="-10.8" x2="97.8" y2="-10.8"/>
		</g>
		<g>
			<line class="st1" x1="11.2" y1="-10.8" x2="25.8" y2="-10.8"/>
		</g>
		<g>
			<line class="st1" x1="81.3" y1="-76" x2="96" y2="-76"/>
			<line class="st1" x1="79.7" y1="-69.3" x2="94.3" y2="-69.3"/>
			<line class="st1" x1="83.2" y1="-82.8" x2="97.8" y2="-82.8"/>
			<line class="st1" x1="84.2" y1="-52" x2="98.8" y2="-52"/>
			<line class="st1" x1="88.7" y1="-80.2" x2="74" y2="-80.2"/>
			<line class="st1" x1="92.2" y1="-74.7" x2="77.5" y2="-74.7"/>
			<line class="st1" x1="74.3" y1="-66.5" x2="89" y2="-66.5"/>
			<line class="st1" x1="78" y1="-17.5" x2="92.7" y2="-17.5"/>
			<line class="st1" x1="74.3" y1="-12.8" x2="89" y2="-12.8"/>
			<line class="st1" x1="79.7" y1="-14.8" x2="94.3" y2="-14.8"/>
			<line class="st1" x1="75" y1="-19.8" x2="89.7" y2="-19.8"/>
			<line class="st1" x1="79.7" y1="-28.5" x2="94.3" y2="-28.5"/>
			<line class="st1" x1="76.3" y1="-24.2" x2="91" y2="-24.2"/>
			<line class="st1" x1="89.8" y1="-59.7" x2="75.2" y2="-59.7"/>
			<line class="st1" x1="90.3" y1="-56.2" x2="75.7" y2="-56.2"/>
			<line class="st1" x1="93.3" y1="-54.2" x2="78.7" y2="-54.2"/>
			<line class="st1" x1="79" y1="-64.3" x2="93.7" y2="-64.3"/>
			<line class="st1" x1="89.5" y1="-50.2" x2="74.8" y2="-50.2"/>
			<line class="st1" x1="93.5" y1="-48.2" x2="78.8" y2="-48.2"/>
			<line class="st1" x1="87.8" y1="-45.8" x2="73.2" y2="-45.8"/>
			<line class="st1" x1="76" y1="-31.5" x2="90.7" y2="-31.5"/>
			<line class="st1" x1="78" y1="-35.8" x2="92.7" y2="-35.8"/>
			<line class="st1" x1="78" y1="-41.2" x2="92.7" y2="-41.2"/>
			<line class="st1" x1="80.7" y1="-38.5" x2="95.3" y2="-38.5"/>
			<line class="st1" x1="82.7" y1="-43.5" x2="97.3" y2="-43.5"/>
		</g>
		<g>
			<line class="st1" x1="22.5" y1="-77.3" x2="22.5" y2="-62.7"/>
			<line class="st1" x1="25" y1="-74.3" x2="25" y2="-59.7"/>
			<line class="st1" x1="21.3" y1="-64.7" x2="21.3" y2="-50"/>
			<line class="st1" x1="28.7" y1="-64.3" x2="28.7" y2="-49.7"/>
			<line class="st1" x1="19" y1="-71.3" x2="19" y2="-56.7"/>
			<line class="st1" x1="31" y1="-74.3" x2="31" y2="-59.7"/>
			<line class="st1" x1="36.5" y1="-74.3" x2="36.5" y2="-59.7"/>
			<line class="st1" x1="37.8" y1="-70.7" x2="37.8" y2="-56"/>
			<line class="st1" x1="34" y1="-79.8" x2="34" y2="-65.2"/>
			<line class="st1" x1="27.5" y1="-77.8" x2="27.5" y2="-63.2"/>
			<line class="st1" x1="14" y1="-72" x2="28.7" y2="-72"/>
			<line class="st1" x1="9.3" y1="-76" x2="24" y2="-76"/>
			<line class="st1" x1="7.7" y1="-69.3" x2="22.3" y2="-69.3"/>
			<line class="st1" x1="26" y1="-75.7" x2="40.7" y2="-75.7"/>
			<line class="st1" x1="20.8" y1="-73.8" x2="35.5" y2="-73.8"/>
			<line class="st1" x1="24.5" y1="-65.7" x2="39.2" y2="-65.7"/>
			<line class="st1" x1="17.8" y1="-68.2" x2="32.5" y2="-68.2"/>
			<line class="st1" x1="51.3" y1="-73" x2="51.3" y2="-58.3"/>
			<line class="st1" x1="48.8" y1="-70" x2="48.8" y2="-55.3"/>
			<line class="st1" x1="54.8" y1="-67" x2="54.8" y2="-52.3"/>
			<line class="st1" x1="56.2" y1="-59.7" x2="56.2" y2="-45"/>
			<line class="st1" x1="57.5" y1="-67" x2="57.5" y2="-52.3"/>
			<line class="st1" x1="42.8" y1="-70" x2="42.8" y2="-55.3"/>
			<line class="st1" x1="32.7" y1="-66.7" x2="32.7" y2="-52"/>
			<line class="st1" x1="41.2" y1="-76.5" x2="41.2" y2="-61.8"/>
			<line class="st1" x1="39.5" y1="-79.8" x2="39.5" y2="-65.2"/>
			<line class="st1" x1="46.3" y1="-74.8" x2="46.3" y2="-60.2"/>
			<line class="st1" x1="54.8" y1="-68.3" x2="40.2" y2="-68.3"/>
			<line class="st1" x1="46.5" y1="-70.3" x2="31.8" y2="-70.3"/>
			<line class="st1" x1="55.3" y1="-64.8" x2="40.7" y2="-64.8"/>
			<line class="st1" x1="49.7" y1="-61" x2="35" y2="-61"/>
			<line class="st1" x1="58.3" y1="-62.8" x2="43.7" y2="-62.8"/>
			<line class="st1" x1="83.7" y1="-81.8" x2="83.7" y2="-67.2"/>
			<line class="st1" x1="79" y1="-81.8" x2="79" y2="-67.2"/>
			<line class="st1" x1="71.2" y1="-81.8" x2="71.2" y2="-67.2"/>
			<line class="st1" x1="88.7" y1="-80.2" x2="74" y2="-80.2"/>
			<line class="st1" x1="87.2" y1="-77.7" x2="72.5" y2="-77.7"/>
			<line class="st1" x1="83.2" y1="-73.2" x2="68.5" y2="-73.2"/>
			<line class="st1" x1="75.2" y1="-74.5" x2="60.5" y2="-74.5"/>
			<line class="st1" x1="92.2" y1="-74.7" x2="77.5" y2="-74.7"/>
			<line class="st1" x1="54.3" y1="-80.5" x2="54.3" y2="-65.8"/>
			<line class="st1" x1="58.8" y1="-77.5" x2="58.8" y2="-62.8"/>
			<line class="st1" x1="52.8" y1="-74.5" x2="52.8" y2="-59.8"/>
			<line class="st1" x1="65.5" y1="-78.2" x2="65.5" y2="-63.5"/>
			<line class="st1" x1="75" y1="-74.2" x2="75" y2="-59.5"/>
			<line class="st1" x1="67.8" y1="-83" x2="67.8" y2="-68.3"/>
			<line class="st1" x1="63" y1="-82" x2="63" y2="-67.3"/>
			<line class="st1" x1="52.7" y1="-80.7" x2="67.3" y2="-80.7"/>
			<line class="st1" x1="59.8" y1="-78.8" x2="74.5" y2="-78.8"/>
			<line class="st1" x1="51.5" y1="-77.2" x2="66.2" y2="-77.2"/>
			<line class="st1" x1="52.3" y1="-72.3" x2="67" y2="-72.3"/>
			<line class="st1" x1="58" y1="-67.5" x2="72.7" y2="-67.5"/>
			<line class="st1" x1="61.7" y1="-69.5" x2="76.3" y2="-69.5"/>
			<line class="st1" x1="49.3" y1="-70.3" x2="64" y2="-70.3"/>
			<line class="st1" x1="44.3" y1="-81.3" x2="44.3" y2="-66.7"/>
			<line class="st1" x1="42.7" y1="-82" x2="42.7" y2="-67.3"/>
			<line class="st1" x1="36.7" y1="-81.3" x2="36.7" y2="-66.7"/>
			<line class="st1" x1="14.8" y1="-44.7" x2="14.8" y2="-30"/>
			<line class="st1" x1="14.3" y1="-61.2" x2="14.3" y2="-46.5"/>
			<line class="st1" x1="15.5" y1="-73.2" x2="15.5" y2="-58.5"/>
			<line class="st1" x1="13.5" y1="-75.7" x2="13.5" y2="-61"/>
			<line class="st1" x1="11.2" y1="-82.8" x2="25.8" y2="-82.8"/>
			<line class="st1" x1="19.5" y1="-81.2" x2="34.2" y2="-81.2"/>
			<line class="st1" x1="14" y1="-78.7" x2="28.7" y2="-78.7"/>
			<line class="st1" x1="36" y1="-78" x2="50.7" y2="-78"/>
			<line class="st1" x1="31" y1="-79.3" x2="45.7" y2="-79.3"/>
			<line class="st1" x1="33" y1="-82" x2="47.7" y2="-82"/>
			<line class="st1" x1="38.3" y1="-73.7" x2="53" y2="-73.7"/>
			<line class="st1" x1="54.5" y1="-58.8" x2="39.8" y2="-58.8"/>
			<line class="st1" x1="58.5" y1="-56.8" x2="43.8" y2="-56.8"/>
			<line class="st1" x1="52.8" y1="-54.5" x2="38.2" y2="-54.5"/>
			<line class="st1" x1="31" y1="-48.7" x2="31" y2="-34"/>
			<line class="st1" x1="34.5" y1="-42.7" x2="34.5" y2="-28"/>
			<line class="st1" x1="28.8" y1="-46.3" x2="14.2" y2="-46.3"/>
			<line class="st1" x1="39.8" y1="-42.3" x2="25.2" y2="-42.3"/>
			<line class="st1" x1="35" y1="-40.5" x2="20.3" y2="-40.5"/>
			<line class="st1" x1="38" y1="-38.5" x2="23.3" y2="-38.5"/>
			<line class="st1" x1="50.8" y1="-57.5" x2="50.8" y2="-42.8"/>
			<line class="st1" x1="52.2" y1="-51.7" x2="52.2" y2="-37"/>
			<line class="st1" x1="36" y1="-56.2" x2="36" y2="-41.5"/>
			<line class="st1" x1="39.2" y1="-61.5" x2="39.2" y2="-46.8"/>
			<line class="st1" x1="44.5" y1="-53.2" x2="44.5" y2="-38.5"/>
			<line class="st1" x1="47.5" y1="-58.7" x2="47.5" y2="-44"/>
			<line class="st1" x1="45.8" y1="-59" x2="45.8" y2="-44.3"/>
			<line class="st1" x1="41" y1="-56.7" x2="41" y2="-42"/>
			<line class="st1" x1="37.7" y1="-43.2" x2="52.3" y2="-43.2"/>
			<line class="st1" x1="40.3" y1="-41.8" x2="55" y2="-41.8"/>
			<line class="st1" x1="43" y1="-44.5" x2="57.7" y2="-44.5"/>
			<line class="st1" x1="43" y1="-49.8" x2="57.7" y2="-49.8"/>
			<line class="st1" x1="45.7" y1="-47.2" x2="60.3" y2="-47.2"/>
			<line class="st1" x1="59" y1="-49.8" x2="73.7" y2="-49.8"/>
			<line class="st1" x1="47.7" y1="-52.2" x2="62.3" y2="-52.2"/>
			<line class="st1" x1="74.3" y1="-66.5" x2="89" y2="-66.5"/>
			<line class="st1" x1="58.3" y1="-59.5" x2="73" y2="-59.5"/>
			<line class="st1" x1="56.3" y1="-61.8" x2="71" y2="-61.8"/>
			<line class="st1" x1="29" y1="-46" x2="43.7" y2="-46"/>
			<line class="st1" x1="29.3" y1="-48" x2="44" y2="-48"/>
			<line class="st1" x1="43.2" y1="-37.2" x2="28.5" y2="-37.2"/>
			<line class="st1" x1="34.8" y1="-62.2" x2="34.8" y2="-47.5"/>
			<line class="st1" x1="32.7" y1="-65.7" x2="32.7" y2="-51"/>
			<line class="st1" x1="23.7" y1="-57" x2="38.3" y2="-57"/>
			<line class="st1" x1="16.7" y1="-58.3" x2="31.3" y2="-58.3"/>
			<line class="st1" x1="18.3" y1="-60.3" x2="33" y2="-60.3"/>
			<line class="st1" x1="17" y1="-63" x2="31.7" y2="-63"/>
			<line class="st1" x1="26.3" y1="-63" x2="41" y2="-63"/>
			<line class="st1" x1="19.8" y1="-39.3" x2="19.8" y2="-24.7"/>
			<line class="st1" x1="22.3" y1="-36.3" x2="22.3" y2="-21.7"/>
			<line class="st1" x1="18.7" y1="-26.7" x2="18.7" y2="-12"/>
			<line class="st1" x1="15.7" y1="-29" x2="15.7" y2="-14.3"/>
			<line class="st1" x1="26" y1="-26.3" x2="26" y2="-11.7"/>
			<line class="st1" x1="28.3" y1="-36.3" x2="28.3" y2="-21.7"/>
			<line class="st1" x1="37.8" y1="-44.7" x2="37.8" y2="-30"/>
			<line class="st1" x1="71.3" y1="-23" x2="71.3" y2="-8.3"/>
			<line class="st1" x1="74.2" y1="-35.7" x2="74.2" y2="-21"/>
			<line class="st1" x1="70.8" y1="-19" x2="56.2" y2="-19"/>
			<line class="st1" x1="75.3" y1="-14.8" x2="60.7" y2="-14.8"/>
			<line class="st1" x1="72.7" y1="-12.8" x2="58" y2="-12.8"/>
			<line class="st1" x1="76.7" y1="-16.5" x2="62" y2="-16.5"/>
			<line class="st1" x1="76.3" y1="-30.5" x2="76.3" y2="-15.8"/>
			<line class="st1" x1="72.8" y1="-24.5" x2="72.8" y2="-9.8"/>
			<line class="st1" x1="61.5" y1="-35.2" x2="61.5" y2="-20.5"/>
			<line class="st1" x1="59.8" y1="-32.5" x2="59.8" y2="-17.8"/>
			<line class="st1" x1="57.8" y1="-26.7" x2="57.8" y2="-12"/>
			<line class="st1" x1="80" y1="-28.7" x2="80" y2="-14"/>
			<line class="st1" x1="81.7" y1="-34.7" x2="81.7" y2="-20"/>
			<line class="st1" x1="84" y1="-37" x2="84" y2="-22.3"/>
			<line class="st1" x1="78" y1="-17.5" x2="92.7" y2="-17.5"/>
			<line class="st1" x1="74.3" y1="-12.8" x2="89" y2="-12.8"/>
			<line class="st1" x1="79.7" y1="-14.8" x2="94.3" y2="-14.8"/>
			<line class="st1" x1="75" y1="-19.8" x2="89.7" y2="-19.8"/>
			<line class="st1" x1="72" y1="-26.5" x2="86.7" y2="-26.5"/>
			<line class="st1" x1="79.7" y1="-28.5" x2="94.3" y2="-28.5"/>
			<line class="st1" x1="76.3" y1="-24.2" x2="91" y2="-24.2"/>
			<line class="st1" x1="78.2" y1="-19" x2="78.2" y2="-4.3"/>
			<line class="st1" x1="82.5" y1="-21.7" x2="82.5" y2="-7"/>
			<line class="st1" x1="16.3" y1="-34.7" x2="31" y2="-34.7"/>
			<line class="st1" x1="21" y1="-15.3" x2="35.7" y2="-15.3"/>
			<line class="st1" x1="17.8" y1="-32.2" x2="32.5" y2="-32.2"/>
			<line class="st1" x1="21.8" y1="-27.7" x2="36.5" y2="-27.7"/>
			<line class="st1" x1="32.8" y1="-30.7" x2="47.5" y2="-30.7"/>
			<line class="st1" x1="13.7" y1="-30.5" x2="28.3" y2="-30.5"/>
			<line class="st1" x1="30.5" y1="-31" x2="30.5" y2="-16.3"/>
			<line class="st1" x1="45.2" y1="-33.3" x2="30.5" y2="-33.3"/>
			<line class="st1" x1="47" y1="-23" x2="32.3" y2="-23"/>
			<line class="st1" x1="48.7" y1="-21.3" x2="34" y2="-21.3"/>
			<line class="st1" x1="47.2" y1="-26.3" x2="32.5" y2="-26.3"/>
			<line class="st1" x1="51.8" y1="-29" x2="37.2" y2="-29"/>
			<line class="st1" x1="32.2" y1="-24.2" x2="32.2" y2="-9.5"/>
			<line class="st1" x1="25.3" y1="-45" x2="25.3" y2="-30.3"/>
			<line class="st1" x1="23.7" y1="-50.3" x2="23.7" y2="-35.7"/>
			<line class="st1" x1="26.7" y1="-53.3" x2="26.7" y2="-38.7"/>
			<line class="st1" x1="21.3" y1="-51.7" x2="21.3" y2="-37"/>
			<line class="st1" x1="17.7" y1="-50.7" x2="17.7" y2="-36"/>
			<line class="st1" x1="19.7" y1="-55.3" x2="19.7" y2="-40.7"/>
			<line class="st1" x1="21" y1="-19" x2="35.7" y2="-19"/>
			<line class="st1" x1="13.8" y1="-20.7" x2="28.5" y2="-20.7"/>
			<line class="st1" x1="15.7" y1="-22.3" x2="30.3" y2="-22.3"/>
			<line class="st1" x1="42.3" y1="-33" x2="42.3" y2="-18.3"/>
			<line class="st1" x1="39.3" y1="-40" x2="39.3" y2="-25.3"/>
			<line class="st1" x1="38.7" y1="-23.3" x2="38.7" y2="-8.7"/>
			<line class="st1" x1="46" y1="-23" x2="46" y2="-8.3"/>
			<line class="st1" x1="36.3" y1="-30" x2="36.3" y2="-15.3"/>
			<line class="st1" x1="48.3" y1="-33" x2="48.3" y2="-18.3"/>
			<line class="st1" x1="43.8" y1="-24.2" x2="43.8" y2="-9.5"/>
			<line class="st1" x1="40.8" y1="-28.2" x2="40.8" y2="-13.5"/>
			<line class="st1" x1="41" y1="-12" x2="55.7" y2="-12"/>
			<line class="st1" x1="43" y1="-14.3" x2="57.7" y2="-14.3"/>
			<line class="st1" x1="50" y1="-25.3" x2="50" y2="-10.7"/>
			<line class="st1" x1="45.3" y1="-37.7" x2="45.3" y2="-23"/>
			<line class="st1" x1="67.8" y1="-25.3" x2="67.8" y2="-10.7"/>
			<line class="st1" x1="60.8" y1="-17.3" x2="60.8" y2="-2.7"/>
			<line class="st1" x1="47" y1="-42.3" x2="47" y2="-27.7"/>
			<line class="st1" x1="41" y1="-15.7" x2="55.7" y2="-15.7"/>
			<line class="st1" x1="34" y1="-17" x2="48.7" y2="-17"/>
			<line class="st1" x1="26" y1="-13.7" x2="40.7" y2="-13.7"/>
			<line class="st1" x1="20.7" y1="-12.3" x2="35.3" y2="-12.3"/>
			<line class="st1" x1="35.7" y1="-19" x2="50.3" y2="-19"/>
			<line class="st1" x1="14.3" y1="-25" x2="29" y2="-25"/>
			<line class="st1" x1="23.7" y1="-25" x2="38.3" y2="-25"/>
			<line class="st1" x1="29.3" y1="-52.2" x2="44" y2="-52.2"/>
			<line class="st1" x1="20.7" y1="-55" x2="35.3" y2="-55"/>
			<line class="st1" x1="19.5" y1="-49.7" x2="34.2" y2="-49.7"/>
			<line class="st1" x1="12.2" y1="-52" x2="26.8" y2="-52"/>
			<line class="st1" x1="60" y1="-65.7" x2="60" y2="-51"/>
			<line class="st1" x1="63.7" y1="-55.7" x2="63.7" y2="-41"/>
			<line class="st1" x1="65.7" y1="-63" x2="65.7" y2="-48.3"/>
			<line class="st1" x1="71.5" y1="-65.7" x2="71.5" y2="-51"/>
			<line class="st1" x1="72.8" y1="-62" x2="72.8" y2="-47.3"/>
			<line class="st1" x1="69" y1="-71.2" x2="69" y2="-56.5"/>
			<line class="st1" x1="61.5" y1="-69.2" x2="61.5" y2="-54.5"/>
			<line class="st1" x1="59.5" y1="-57" x2="74.2" y2="-57"/>
			<line class="st1" x1="53.2" y1="-34.7" x2="53.2" y2="-20"/>
			<line class="st1" x1="54.5" y1="-27.3" x2="54.5" y2="-12.7"/>
			<line class="st1" x1="51.2" y1="-37.7" x2="51.2" y2="-23"/>
			<line class="st1" x1="55.8" y1="-34.7" x2="55.8" y2="-20"/>
			<line class="st1" x1="77.8" y1="-61.3" x2="77.8" y2="-46.7"/>
			<line class="st1" x1="67.7" y1="-58" x2="67.7" y2="-43.3"/>
			<line class="st1" x1="76.2" y1="-67.8" x2="76.2" y2="-53.2"/>
			<line class="st1" x1="79.8" y1="-72.5" x2="79.8" y2="-57.8"/>
			<line class="st1" x1="81.3" y1="-70.3" x2="81.3" y2="-55.7"/>
			<line class="st1" x1="83.3" y1="-65.5" x2="83.3" y2="-50.8"/>
			<line class="st1" x1="89.8" y1="-59.7" x2="75.2" y2="-59.7"/>
			<line class="st1" x1="82.8" y1="-62.7" x2="68.2" y2="-62.7"/>
			<line class="st1" x1="77.2" y1="-65" x2="62.5" y2="-65"/>
			<line class="st1" x1="81.5" y1="-71.3" x2="66.8" y2="-71.3"/>
			<line class="st1" x1="90.3" y1="-56.2" x2="75.7" y2="-56.2"/>
			<line class="st1" x1="84.7" y1="-52.3" x2="70" y2="-52.3"/>
			<line class="st1" x1="93.3" y1="-54.2" x2="78.7" y2="-54.2"/>
			<line class="st1" x1="54.7" y1="-48.2" x2="54.7" y2="-33.5"/>
			<line class="st1" x1="57.2" y1="-45.2" x2="57.2" y2="-30.5"/>
			<line class="st1" x1="72.5" y1="-42.2" x2="72.5" y2="-27.5"/>
			<line class="st1" x1="59.7" y1="-48.7" x2="59.7" y2="-34"/>
			<line class="st1" x1="50.7" y1="-40" x2="65.3" y2="-40"/>
			<line class="st1" x1="56.3" y1="-35.2" x2="71" y2="-35.2"/>
			<line class="st1" x1="79" y1="-64.3" x2="93.7" y2="-64.3"/>
			<line class="st1" x1="89.5" y1="-50.2" x2="74.8" y2="-50.2"/>
			<line class="st1" x1="93.5" y1="-48.2" x2="78.8" y2="-48.2"/>
			<line class="st1" x1="87.8" y1="-45.8" x2="73.2" y2="-45.8"/>
			<line class="st1" x1="66" y1="-40" x2="66" y2="-25.3"/>
			<line class="st1" x1="69.5" y1="-34" x2="69.5" y2="-19.3"/>
			<line class="st1" x1="65.5" y1="-26.3" x2="65.5" y2="-11.7"/>
			<line class="st1" x1="63.2" y1="-28.7" x2="63.2" y2="-14"/>
			<line class="st1" x1="73" y1="-29.8" x2="58.3" y2="-29.8"/>
			<line class="st1" x1="65" y1="-32.5" x2="50.3" y2="-32.5"/>
			<line class="st1" x1="54.7" y1="-35.5" x2="40" y2="-35.5"/>
			<line class="st1" x1="64.8" y1="-51.2" x2="64.8" y2="-36.5"/>
			<line class="st1" x1="51.8" y1="-19.3" x2="51.8" y2="-4.7"/>
			<line class="st1" x1="77.8" y1="-36.2" x2="77.8" y2="-21.5"/>
			<line class="st1" x1="71" y1="-47.5" x2="71" y2="-32.8"/>
			<line class="st1" x1="74.2" y1="-52.8" x2="74.2" y2="-38.2"/>
			<line class="st1" x1="67.5" y1="-41.5" x2="67.5" y2="-26.8"/>
			<line class="st1" x1="79.5" y1="-44.5" x2="79.5" y2="-29.8"/>
			<line class="st1" x1="82.5" y1="-50" x2="82.5" y2="-35.3"/>
			<line class="st1" x1="80.8" y1="-50.3" x2="80.8" y2="-35.7"/>
			<line class="st1" x1="76" y1="-48" x2="76" y2="-33.3"/>
			<line class="st1" x1="72.7" y1="-34.5" x2="87.3" y2="-34.5"/>
			<line class="st1" x1="76" y1="-31.5" x2="90.7" y2="-31.5"/>
			<line class="st1" x1="78" y1="-35.8" x2="92.7" y2="-35.8"/>
			<line class="st1" x1="78" y1="-41.2" x2="92.7" y2="-41.2"/>
			<line class="st1" x1="80.7" y1="-38.5" x2="95.3" y2="-38.5"/>
			<line class="st1" x1="82.7" y1="-43.5" x2="97.3" y2="-43.5"/>
			<line class="st1" x1="51" y1="-21.2" x2="65.7" y2="-21.2"/>
			<line class="st1" x1="55.3" y1="-23.8" x2="70" y2="-23.8"/>
			<line class="st1" x1="54.7" y1="-28.5" x2="69.3" y2="-28.5"/>
			<line class="st1" x1="39" y1="-38.5" x2="53.7" y2="-38.5"/>
			<line class="st1" x1="64" y1="-37.3" x2="78.7" y2="-37.3"/>
			<line class="st1" x1="64.3" y1="-39.3" x2="79" y2="-39.3"/>
			<line class="st1" x1="69.8" y1="-53.5" x2="69.8" y2="-38.8"/>
			<line class="st1" x1="67.7" y1="-57" x2="67.7" y2="-42.3"/>
			<line class="st1" x1="61.3" y1="-51.3" x2="61.3" y2="-36.7"/>
			<line class="st1" x1="58.7" y1="-45.7" x2="73.3" y2="-45.7"/>
			<line class="st1" x1="61.3" y1="-54.3" x2="76" y2="-54.3"/>
			<line class="st1" x1="64.3" y1="-43.5" x2="79" y2="-43.5"/>
			<line class="st1" x1="81.3" y1="-76" x2="96" y2="-76"/>
			<line class="st1" x1="79.7" y1="-69.3" x2="94.3" y2="-69.3"/>
			<line class="st1" x1="16.7" y1="-80.2" x2="2" y2="-80.2"/>
			<line class="st1" x1="20.2" y1="-74.7" x2="5.5" y2="-74.7"/>
			<line class="st1" x1="2.3" y1="-66.5" x2="17" y2="-66.5"/>
			<line class="st1" x1="6" y1="-17.5" x2="20.7" y2="-17.5"/>
			<line class="st1" x1="2.3" y1="-12.8" x2="17" y2="-12.8"/>
			<line class="st1" x1="7.7" y1="-14.8" x2="22.3" y2="-14.8"/>
			<line class="st1" x1="3" y1="-19.8" x2="17.7" y2="-19.8"/>
			<line class="st1" x1="7.7" y1="-28.5" x2="22.3" y2="-28.5"/>
			<line class="st1" x1="4.3" y1="-24.2" x2="19" y2="-24.2"/>
			<line class="st1" x1="17.8" y1="-59.7" x2="3.2" y2="-59.7"/>
			<line class="st1" x1="18.3" y1="-56.2" x2="3.7" y2="-56.2"/>
			<line class="st1" x1="21.3" y1="-54.2" x2="6.7" y2="-54.2"/>
			<line class="st1" x1="7" y1="-64.3" x2="21.7" y2="-64.3"/>
			<line class="st1" x1="17.5" y1="-50.2" x2="2.8" y2="-50.2"/>
			<line class="st1" x1="21.5" y1="-48.2" x2="6.8" y2="-48.2"/>
			<line class="st1" x1="15.8" y1="-45.8" x2="1.2" y2="-45.8"/>
			<line class="st1" x1="4" y1="-31.5" x2="18.7" y2="-31.5"/>
			<line class="st1" x1="6" y1="-35.8" x2="20.7" y2="-35.8"/>
			<line class="st1" x1="6" y1="-41.2" x2="20.7" y2="-41.2"/>
			<line class="st1" x1="8.7" y1="-38.5" x2="23.3" y2="-38.5"/>
			<line class="st1" x1="10.7" y1="-43.5" x2="25.3" y2="-43.5"/>
			<line class="st1" x1="25.8" y1="-18.2" x2="25.8" y2="-3.5"/>
			<line class="st1" x1="23.2" y1="-20.5" x2="23.2" y2="-5.8"/>
			<line class="st1" x1="76.2" y1="-14.7" x2="76.2" y2="0"/>
			<line class="st1" x1="73.7" y1="-15.3" x2="73.7" y2="-0.7"/>
			<line class="st1" x1="50.3" y1="-14.7" x2="50.3" y2="0"/>
			<line class="st1" x1="81.5" y1="-14.7" x2="81.5" y2="0"/>
			<line class="st1" x1="56" y1="-16.5" x2="56" y2="-1.8"/>
			<line class="st1" x1="29.7" y1="-15.3" x2="29.7" y2="-0.7"/>
			<line class="st1" x1="14.7" y1="-15.5" x2="14.7" y2="-0.8"/>
			<line class="st1" x1="19.7" y1="-17.5" x2="19.7" y2="-2.8"/>
			<line class="st1" x1="47.7" y1="-14.7" x2="47.7" y2="0"/>
			<line class="st1" x1="71.3" y1="-23" x2="71.3" y2="-8.3"/>
			<line class="st1" x1="46" y1="-23" x2="46" y2="-8.3"/>
		</g>
		<g>
			<line class="st1" x1="16.7" y1="-80.2" x2="2" y2="-80.2"/>
			<line class="st1" x1="15.2" y1="-77.7" x2="0.5" y2="-77.7"/>
			<line class="st1" x1="20.2" y1="-74.7" x2="5.5" y2="-74.7"/>
			<line class="st1" x1="2.3" y1="-66.5" x2="17" y2="-66.5"/>
			<line class="st1" x1="6" y1="-17.5" x2="20.7" y2="-17.5"/>
			<line class="st1" x1="2.3" y1="-12.8" x2="17" y2="-12.8"/>
			<line class="st1" x1="7.7" y1="-14.8" x2="22.3" y2="-14.8"/>
			<line class="st1" x1="3" y1="-19.8" x2="17.7" y2="-19.8"/>
			<line class="st1" x1="0" y1="-26.5" x2="14.7" y2="-26.5"/>
			<line class="st1" x1="7.7" y1="-28.5" x2="22.3" y2="-28.5"/>
			<line class="st1" x1="4.3" y1="-24.2" x2="19" y2="-24.2"/>
			<line class="st1" x1="17.8" y1="-59.7" x2="3.2" y2="-59.7"/>
			<line class="st1" x1="18.3" y1="-56.2" x2="3.7" y2="-56.2"/>
			<line class="st1" x1="21.3" y1="-54.2" x2="6.7" y2="-54.2"/>
			<line class="st1" x1="7" y1="-64.3" x2="21.7" y2="-64.3"/>
			<line class="st1" x1="17.5" y1="-50.2" x2="2.8" y2="-50.2"/>
			<line class="st1" x1="21.5" y1="-48.2" x2="6.8" y2="-48.2"/>
			<line class="st1" x1="15.8" y1="-45.8" x2="1.2" y2="-45.8"/>
			<line class="st1" x1="0.7" y1="-34.5" x2="15.3" y2="-34.5"/>
			<line class="st1" x1="4" y1="-31.5" x2="18.7" y2="-31.5"/>
			<line class="st1" x1="6" y1="-35.8" x2="20.7" y2="-35.8"/>
			<line class="st1" x1="6" y1="-41.2" x2="20.7" y2="-41.2"/>
			<line class="st1" x1="8.7" y1="-38.5" x2="23.3" y2="-38.5"/>
			<line class="st1" x1="10.7" y1="-43.5" x2="25.3" y2="-43.5"/>
			<line class="st1" x1="9.3" y1="-76" x2="24" y2="-76"/>
			<line class="st1" x1="7.7" y1="-69.3" x2="22.3" y2="-69.3"/>
		</g>
		<g>
			<line class="st1" x1="71.3" y1="-95" x2="71.3" y2="-80.3"/>
			<line class="st1" x1="72.8" y1="-96.5" x2="72.8" y2="-81.8"/>
			<line class="st1" x1="78.2" y1="-91" x2="78.2" y2="-76.3"/>
			<line class="st1" x1="82.5" y1="-93.7" x2="82.5" y2="-79"/>
			<line class="st1" x1="32.2" y1="-96.2" x2="32.2" y2="-81.5"/>
			<line class="st1" x1="38.7" y1="-95.3" x2="38.7" y2="-80.7"/>
			<line class="st1" x1="46" y1="-95" x2="46" y2="-80.3"/>
			<line class="st1" x1="43.8" y1="-96.2" x2="43.8" y2="-81.5"/>
			<line class="st1" x1="50" y1="-97.3" x2="50" y2="-82.7"/>
			<line class="st1" x1="67.8" y1="-97.3" x2="67.8" y2="-82.7"/>
			<line class="st1" x1="60.8" y1="-89.3" x2="60.8" y2="-74.7"/>
			<line class="st1" x1="51.8" y1="-91.3" x2="51.8" y2="-76.7"/>
			<line class="st1" x1="25.8" y1="-90.2" x2="25.8" y2="-75.5"/>
			<line class="st1" x1="23.2" y1="-92.5" x2="23.2" y2="-77.8"/>
			<line class="st1" x1="76.2" y1="-86.7" x2="76.2" y2="-72"/>
			<line class="st1" x1="73.7" y1="-87.3" x2="73.7" y2="-72.7"/>
			<line class="st1" x1="50.3" y1="-86.7" x2="50.3" y2="-72"/>
			<line class="st1" x1="81.5" y1="-86.7" x2="81.5" y2="-72"/>
			<line class="st1" x1="56" y1="-88.5" x2="56" y2="-73.8"/>
			<line class="st1" x1="29.7" y1="-87.3" x2="29.7" y2="-72.7"/>
			<line class="st1" x1="14.7" y1="-87.5" x2="14.7" y2="-72.8"/>
			<line class="st1" x1="19.7" y1="-89.5" x2="19.7" y2="-74.8"/>
			<line class="st1" x1="47.7" y1="-86.7" x2="47.7" y2="-72"/>
			<line class="st1" x1="71.3" y1="-95" x2="71.3" y2="-80.3"/>
			<line class="st1" x1="46" y1="-95" x2="46" y2="-80.3"/>
		</g>
	</g>
</pattern>
<g>
	<rect class="st2" width="283.5" height="283.5"/>
</g>
<g>
	<rect x="0" y="0" class="st3" width="283.5" height="283.5"/>
</g>
<g>
	<rect x="0" y="0" class="st4" width="283.5" height="283.5"/>
</g>
</svg>
